<svg width="131" height="131" viewBox="0 0 131 131" fill="none" xmlns="http://www.w3.org/2000/svg">
<path d="M130.806 96.6319C130.009 93.0942 125.537 92.4464 122.41 91.4717C120.881 90.9859 119.704 89.7713 119.231 88.2267C114.058 71.3727 121.984 49.7727 110.558 36.2136C110.492 36.1357 110.436 36.0485 110.371 35.9707C105.204 28.5714 100.496 25.9181 106.441 20.4402C107.247 19.7146 107.811 18.7555 107.998 17.7122C109.209 10.9825 108.343 8.64681 108.49 6.22398C108.636 3.75754 106.824 1.58384 104.401 1.18211C79.587 -2.81339 36.9196 10.7551 43.2071 19.4219C43.5808 19.9388 43.8673 20.515 44.0075 21.1409C44.3562 22.6295 44.5431 23.897 44.3967 24.8655C44.3282 26.5845 44.8203 27.7181 44.7985 28.7769C44.7767 29.5274 45.004 30.253 45.3341 30.9164C49.3732 39.306 44.7299 36.7087 39.6943 37.6928C38.5825 37.9233 37.5767 38.5804 36.8947 39.4959C13.4355 69.6973 15.7275 47.8544 2.12167 62.0208C1.24969 62.9021 0.795025 64.1011 0.795025 65.325C0.770112 67.3181 0.788797 68.9717 0.785683 70.2174C0.804368 71.6374 1.42097 72.9828 2.52028 73.8983C20.2556 88.5693 43.8331 100.11 61.2133 115.703C61.6524 116.124 62.0261 116.575 62.2908 117.114C64.7074 122.087 74.3894 122.224 75.3424 126.366C75.9559 128.979 78.7493 130.492 81.3839 129.935C84.2832 129.3 87.4036 127.986 90.3652 127.702C91.0254 127.637 91.6669 127.472 92.2275 127.166C95.4351 125.454 97.6991 122.041 100.029 120.381C109.162 112.673 120.208 107.712 128.847 101.446C130.37 100.344 131.223 98.4848 130.806 96.6319ZM100.452 13.4302C101.797 13.4333 102.897 14.5357 102.894 15.9029C102.89 17.2482 101.788 18.3475 100.443 18.3444C99.0974 18.3413 97.9981 17.2389 98.0012 15.8935C98.0043 14.5264 99.1067 13.4271 100.452 13.4302ZM101.62 46.1385C101.62 46.8205 101.056 47.3593 100.396 47.3593C99.7358 47.3593 99.197 46.8174 99.197 46.1354C99.197 45.4752 99.7389 44.9364 100.399 44.9364C101.059 44.9364 101.62 45.4783 101.62 46.1385ZM94.8901 25.6596C94.887 27.0049 93.7846 28.1042 92.4393 28.1011C91.0939 28.098 89.9946 26.9956 89.9977 25.6503C90.0009 24.3049 91.1033 23.2056 92.4486 23.2087C93.7908 23.2119 94.8901 24.3143 94.8901 25.6596ZM89.9448 11.7143C90.605 11.7143 91.1656 12.2562 91.1656 12.9164C91.1656 13.5984 90.6019 14.1371 89.9417 14.1371C89.2815 14.1371 88.7427 13.5953 88.7427 12.9132C88.7427 12.253 89.2846 11.7143 89.9448 11.7143ZM63.8292 14.6136C64.4894 14.6136 65.0282 15.1555 65.0282 15.8375C65.0282 16.4977 64.4863 17.0364 63.8261 17.0364C63.1659 17.0364 62.6054 16.4946 62.6054 15.8344C62.6054 15.1523 63.169 14.6105 63.8292 14.6136ZM51.5562 15.8157C52.9016 15.8188 54.0009 16.8994 53.9978 18.2665C53.9946 19.6119 52.8922 20.7112 51.5469 20.7081C50.2016 20.7049 49.1023 19.6025 49.1054 18.2572C49.1085 16.8901 50.2109 15.8126 51.5562 15.8157ZM36.1597 72.3599C34.8144 72.3568 33.7275 71.2637 33.7275 69.9215C33.7306 68.5544 34.8237 67.4769 36.1659 67.48C37.5331 67.4831 38.6324 68.5637 38.6293 69.9309C38.6293 71.2731 37.5268 72.363 36.1597 72.3599ZM88.1355 112.735C86.7683 112.732 85.6815 111.63 85.6815 110.263C85.6846 108.917 86.7777 107.83 88.1417 107.834C89.487 107.837 90.5863 108.93 90.5832 110.272C90.5832 111.636 89.4777 112.735 88.1355 112.735ZM111.501 105.853C109.2 105.85 107.219 104.48 106.329 102.518L76.2673 108.528C75.9092 111.767 73.1718 114.283 69.8365 114.28C66.2552 114.274 63.3621 111.371 63.3683 107.79C63.3715 106.61 63.7016 105.51 64.2434 104.564L50.65 90.1637C49.6908 90.7025 48.6009 91.0295 47.4113 91.0295C43.8299 91.0232 40.9369 88.1208 40.9431 84.5395C40.9493 81.6433 42.8583 79.1987 45.4929 78.3765L44.322 61.0679C43.123 60.8468 42.086 60.2364 41.2857 59.3894L24.9113 68.0219C25.1199 68.7288 25.2383 69.4886 25.2383 70.2579C25.232 74.5554 21.7566 78.0309 17.4466 78.0215C13.1397 78.0153 9.66422 74.5274 9.67045 70.2298C9.67668 65.9447 13.1646 62.4475 17.4715 62.4537C19.9068 62.4568 22.0867 63.5966 23.5037 65.3406L39.878 56.7205C39.7908 56.325 39.7348 55.917 39.7379 55.4748C39.7441 52.3357 42.3133 49.7821 45.4524 49.7883C48.604 49.7945 51.1452 52.3544 51.1389 55.4935C51.1358 57.9817 49.5351 60.0838 47.3178 60.8748L48.4888 78.1835C50.3168 78.4949 51.8677 79.5319 52.8362 80.9987L67.8559 72.7056C67.6254 71.9551 67.4853 71.1516 67.4853 70.3264C67.4915 66.0412 70.9794 62.544 75.2863 62.5502C75.6943 62.5502 76.1116 62.597 76.5102 62.6624L82.4085 47.4371C81.0102 46.4001 80.1009 44.734 80.104 42.8499C80.1071 40.8662 81.1223 39.1285 82.6576 38.0945L78.7213 26.024C78.413 26.0551 78.1047 26.0769 77.7746 26.0769C75.5386 26.0738 73.5237 25.1209 72.1285 23.6323L56.1279 33.6195C56.1497 33.7627 56.1715 33.8842 56.1715 34.0368C56.1683 35.9987 54.5677 37.5714 52.6306 37.5683C50.6812 37.5651 49.0867 35.9862 49.0898 34.0274C49.0929 32.0779 50.6936 30.4835 52.6431 30.4866C53.3376 30.4866 53.9853 30.7202 54.5365 31.0721L70.5154 21.0631C70.1853 20.1911 70.0016 19.2568 70.0016 18.2852C70.0078 13.9783 73.4957 10.5029 77.8026 10.5091C82.1095 10.5153 85.5756 14.0032 85.5663 18.3101C85.56 21.2281 83.9593 23.7506 81.577 25.0897L85.5351 37.1696H85.8092C88.9701 37.1759 91.5112 39.7233 91.505 42.8624C91.505 43.5662 91.3804 44.2295 91.15 44.8336L102.296 52.8402C103.267 52.0586 104.513 51.5759 105.877 51.579C109.029 51.5852 111.591 54.1451 111.585 57.2842C111.579 60.4357 109.01 62.9987 105.858 62.9925C102.719 62.9862 100.166 60.417 100.172 57.2655C100.172 56.5835 100.306 55.9233 100.527 55.3067L89.3905 47.2907C88.4095 48.0817 87.1514 48.5769 85.7874 48.5738C85.6005 48.5738 85.4137 48.552 85.2268 48.5302L79.3192 63.69C81.5739 65.0603 83.0593 67.5298 83.0531 70.3513C83.0469 74.6489 79.5714 78.1243 75.2614 78.1149C72.8822 78.1118 70.7458 77.0281 69.3289 75.3495L53.8701 83.8731C53.8919 84.1035 53.8919 84.3371 53.8919 84.5551C53.8888 85.8661 53.5119 87.0651 52.8517 88.0772L66.3455 102.356C67.3607 101.696 68.5628 101.325 69.8614 101.325C72.6362 101.328 74.9687 103.075 75.9029 105.523L105.846 99.5468C106.139 96.6724 108.565 94.4395 111.529 94.4457C114.668 94.452 117.209 96.9994 117.203 100.173C117.191 103.318 114.64 105.859 111.501 105.853ZM51.4659 69.9495C51.469 68.5824 52.5715 67.5049 53.9168 67.508C55.2839 67.5111 56.3708 68.5918 56.3708 69.9589C56.3677 71.3042 55.2746 72.3911 53.9106 72.388C52.5621 72.388 51.4628 71.2949 51.4659 69.9495ZM58.75 48.5364C58.7531 45.9267 60.8614 43.8029 63.4742 43.806C66.0839 43.8091 68.186 45.9392 68.1829 48.552C68.1798 51.1648 66.0714 53.2637 63.4586 53.2606C60.8458 53.2544 58.7469 51.1461 58.75 48.5364ZM111.18 74.0821C111.177 75.4274 110.075 76.5267 108.73 76.5236C107.362 76.5205 106.276 75.4181 106.276 74.0727C106.279 72.7274 107.372 71.6281 108.736 71.6312C110.081 71.6343 111.18 72.7367 111.18 74.0821ZM91.695 64.6741C91.6981 63.3288 92.7912 62.2295 94.1458 62.2326C95.513 62.2357 96.5998 63.3381 96.5998 64.6835C96.5967 66.0288 95.5036 67.1281 94.1396 67.125C92.7818 67.1219 91.695 66.0194 91.695 64.6741ZM93.9839 93.144C93.9808 95.436 92.1154 97.2952 89.8015 97.289C87.5002 97.2859 85.6192 95.4205 85.6223 93.1284C85.6254 90.8052 87.5126 88.9461 89.814 88.9492C92.1278 88.9554 93.987 90.8208 93.9839 93.144ZM76.2766 88.9305C76.2735 91.562 74.131 93.6641 71.5213 93.661C68.8991 93.6578 66.7659 91.5495 66.769 88.9149C66.7721 86.2803 68.9147 84.1814 71.5368 84.1845C74.1465 84.1876 76.2798 86.2959 76.2766 88.9305Z" fill="#EA5371"/>
</svg>
