<svg width="180" height="43" viewBox="0 0 180 43" fill="none" xmlns="http://www.w3.org/2000/svg">
<path d="M90.7215 10.5039H90.5432L85.299 24.6306H95.9658L90.7215 10.5039ZM90.7215 10.5039H90.5432L85.299 24.6306H95.9658L90.7215 10.5039ZM0.585266 0.444824V42.457H179.585V0.444824H0.585266ZM53.0759 36.8728H35.0596V5.56237H39.1812V33.0267H53.0759V36.8728ZM100.493 36.8728L97.4004 28.3877H83.9089L80.7721 36.8728H76.2007L88.3021 5.55842H92.9627L105.064 36.8728H100.493ZM149.433 34.3397C147.577 36.0285 145.291 36.8728 142.576 36.8728H130.345V5.56237H141.952C144.373 5.51782 146.718 6.39271 148.491 8.00251C150.308 9.60949 151.216 11.6383 151.216 14.089C151.216 17.1777 149.767 19.3529 146.87 20.6145V20.7885C148.447 21.2694 149.827 22.2254 150.813 23.5193C151.793 24.8014 152.313 26.3631 152.292 27.9626C152.298 30.52 151.345 32.6457 149.433 34.3397ZM142.576 22.7501H134.471V33.0327H142.762C143.471 33.0429 144.173 32.9125 144.828 32.6493C145.483 32.3862 146.076 31.9959 146.572 31.5021C147.061 31.0269 147.448 30.4608 147.71 29.8373C147.972 29.2138 148.103 28.5454 148.096 27.8716C148.098 27.2013 147.961 26.5375 147.691 25.921C147.421 25.3045 147.025 24.7483 146.527 24.2865C145.47 23.2563 144.152 22.7501 142.576 22.7501ZM145.615 17.5455C146.6 16.5568 147.095 15.4277 147.095 14.1839C147.095 12.9401 146.61 11.8486 145.66 10.8599C145.205 10.392 144.655 10.022 144.045 9.7734C143.435 9.52483 142.779 9.40323 142.118 9.41637H134.462V18.995H141.948C142.629 19.0106 143.307 18.8901 143.939 18.6409C144.571 18.3916 145.144 18.0189 145.624 17.5455H145.615ZM90.5432 10.5039L85.299 24.6306H95.9658L90.7215 10.5039H90.5432Z" fill="white"/>
</svg>
