<svg width="426" height="158" viewBox="0 0 426 158" fill="none" xmlns="http://www.w3.org/2000/svg">
<path d="M425.686 29.1334V129.295C425.686 129.755 425.686 130.526 425.619 130.987C425.619 131.336 425.575 131.69 425.532 132.044C425.489 132.398 425.426 133.053 425.426 133.053C425.383 133.407 425.142 134.789 425.055 135.143C424.968 135.497 424.901 135.847 424.814 136.196C424.636 136.792 424.487 137.384 424.289 137.956C424.092 138.528 423.919 139.033 423.721 139.581C423.721 139.605 423.721 139.649 423.678 139.673C423.548 140.022 423.394 140.376 423.264 140.706C423.159 140.89 423.064 141.079 422.979 141.273V141.298C420.723 146.269 417.095 150.483 412.528 153.438C407.961 156.392 402.646 157.962 397.218 157.961C393.277 157.974 389.377 157.148 385.775 155.536C385.582 155.536 381.214 153.339 379.514 151.996C376.57 149.661 374.115 146.762 372.29 143.465L314.034 41.927H313.842L247.481 157.462C247.444 157.525 247.395 157.58 247.337 157.624C247.278 157.668 247.211 157.698 247.14 157.715C247.069 157.731 246.996 157.733 246.924 157.719C246.853 157.706 246.785 157.678 246.725 157.636L173.452 108.426C173.372 108.373 173.279 108.342 173.184 108.337C173.088 108.333 172.992 108.355 172.908 108.4C172.823 108.446 172.752 108.514 172.703 108.598C172.654 108.681 172.628 108.776 172.629 108.872V124.721C172.623 133.381 169.241 141.692 163.212 147.866C157.183 154.041 148.988 157.586 140.39 157.738C140.318 157.739 140.246 157.725 140.179 157.698C140.112 157.671 140.052 157.631 140 157.58C139.949 157.529 139.908 157.468 139.88 157.401C139.851 157.335 139.837 157.263 139.836 157.19V49.929C139.83 45.6394 138.132 41.5278 135.117 38.4978C132.102 35.4678 128.015 33.7672 123.755 33.7698H47.9448C40.4124 33.7698 33.8191 39.376 33.1882 46.9174C33.0055 48.922 33.2398 50.9431 33.8762 52.8515C34.5127 54.7599 35.5373 56.5136 36.8846 58.0009C38.2319 59.4882 39.8724 60.6762 41.7013 61.4892C43.5302 62.3022 45.5073 62.7222 47.5065 62.7226H78.4451C82.2725 62.7175 86.0855 63.1916 89.7967 64.1338C97.6133 66.0811 104.804 70.013 110.682 75.5545C116.56 81.096 120.93 88.0621 123.375 95.7879C126.348 105.207 126.348 115.322 123.375 124.741C120.324 134.327 114.329 142.69 106.254 148.625C98.1793 154.559 88.4418 157.759 78.4451 157.762H0.90592L0.356884 157.2C0.505873 148.541 4.02552 140.288 10.158 134.217C16.2905 128.146 24.5452 124.743 33.1449 124.741H77.7902C85.6934 124.741 92.6382 118.606 92.8356 110.647C92.8872 108.713 92.5529 106.788 91.8526 104.986C91.1522 103.184 90.1001 101.541 88.7584 100.156C87.4167 98.7704 85.8126 97.67 84.0412 96.9197C82.2698 96.1695 80.3669 95.7846 78.4451 95.7879H47.5065C37.5048 95.7816 27.7632 92.5783 19.6853 86.6395C11.6075 80.7007 5.61027 72.333 2.55784 62.742C0.294035 55.6161 -0.26716 48.0527 0.919915 40.6672C2.10699 33.2816 5.0088 26.2827 9.38925 20.2397C13.7697 14.1967 19.505 9.2804 26.1285 5.89087C32.7521 2.50133 40.0767 0.734289 47.5065 0.733516H123.273C129.754 0.73033 136.171 2.01287 142.159 4.50788C148.147 7.00289 153.588 10.6615 158.171 15.2746C162.755 19.8877 166.391 25.365 168.871 31.3935C171.352 37.422 172.629 43.8836 172.629 50.4091V68.0669L172.605 68.1106L172.629 68.1349V68.0669L174.411 65.3996V65.3705L211.158 1.24758C211.193 1.18533 211.239 1.1307 211.296 1.08691C211.352 1.04311 211.416 1.01102 211.485 0.992511C211.553 0.973999 211.625 0.969439 211.695 0.979094C211.766 0.98875 211.833 1.01243 211.894 1.04874C213.162 1.8096 214.371 2.66557 215.511 3.60939C221.58 8.49485 225.706 15.4106 227.14 23.0997C228.575 30.7888 227.222 38.741 223.328 45.5109L200.105 86.0351C200.038 86.1529 200.017 86.2917 200.048 86.4239C200.078 86.5561 200.157 86.6719 200.268 86.748L235.845 110.735C235.905 110.776 235.972 110.804 236.044 110.817C236.115 110.831 236.188 110.829 236.259 110.813C236.329 110.797 236.396 110.766 236.454 110.722C236.512 110.679 236.56 110.623 236.596 110.56L291.572 14.7104L293.166 11.9412L293.315 11.6987C293.903 10.8298 294.547 10.0004 295.242 9.21566C297.577 6.54806 300.45 4.41153 303.668 2.94806C306.887 1.48458 310.378 0.727692 313.909 0.727692C317.441 0.727692 320.932 1.48458 324.15 2.94806C327.369 4.41153 330.241 6.54806 332.576 9.21566C333.29 10.0013 333.947 10.8376 334.541 11.7181C334.592 11.7881 334.635 11.8628 334.671 11.9412L336.266 14.7104L391.906 111.739C391.964 111.84 392.054 111.919 392.162 111.963C392.269 112.008 392.388 112.015 392.501 111.985C392.613 111.955 392.712 111.888 392.783 111.795C392.854 111.703 392.893 111.589 392.893 111.472V62.0048C392.894 53.267 396.335 44.8859 402.461 38.6974C408.586 32.5089 416.898 29.0175 425.575 28.988C425.608 28.9949 425.637 29.0133 425.657 29.04C425.678 29.0667 425.688 29.0999 425.686 29.1334Z" fill="white"/>
</svg>
