<svg width="59" height="55" viewBox="0 0 59 55" fill="none" xmlns="http://www.w3.org/2000/svg">
<path d="M58.5386 42.2411C58.5386 39.0308 57.2864 36.0311 55.0039 33.7486C54.9584 33.703 54.9185 33.6632 54.873 33.6177C53.6662 32.4337 52.1579 31.4832 50.5186 30.9026C49.2038 30.4301 47.8434 30.1911 46.4431 30.1911H41.6163L41.5935 13.0752C41.5935 9.84212 40.3413 6.80259 38.0588 4.52009C35.7763 2.23759 32.7367 0.985352 29.5037 0.985352H12.5642C9.37672 0.985352 6.37703 2.21483 4.09453 4.45748C4.049 4.48025 4.03192 4.52009 3.98638 4.56563C2.02264 6.52937 0.798871 9.11355 0.51427 11.914L0.468724 12.432V12.6027C0.468724 12.6881 0.468737 12.7963 0.445969 12.8817V13.0752C0.445969 14.6689 0.770416 16.2627 1.37377 17.7313C1.52745 18.0785 1.67543 18.42 1.89173 18.79C2.27878 19.5242 2.73414 20.1902 3.20658 20.7537C3.46272 21.0782 3.74733 21.3571 3.96363 21.5734C4.15716 21.7669 4.32791 21.9604 4.45883 22.0686L4.84588 22.393L5.01664 22.5239C5.1874 22.6719 5.3411 22.7801 5.53463 22.9338C5.77369 23.0817 6.00706 23.2354 6.20058 23.3663C6.3315 23.4517 6.43966 23.52 6.56488 23.5826L6.69579 23.6453C6.71855 23.668 6.75841 23.6908 6.78118 23.7079C6.92917 23.7932 7.10563 23.8786 7.32193 23.9868C7.70899 24.1575 8.09603 24.334 8.48309 24.4592C9.77517 24.9316 11.1583 25.1707 12.5586 25.1707H17.3854L17.4082 42.2866C17.3854 45.5197 18.6604 48.5592 20.9429 50.8417C23.2254 53.1242 26.2649 54.3992 29.498 54.3992H46.4602C49.6705 54.3992 52.71 53.1299 54.9982 50.8417C56.979 48.8779 58.2085 46.271 58.4874 43.425L58.5386 42.2411ZM17.3911 17.9248H12.5642C9.889 17.9248 7.71468 15.7504 7.71468 13.0752V12.9898C7.71468 12.8589 7.71467 12.7337 7.73743 12.5572C7.7602 12.3409 7.80006 12.1246 7.82283 11.9766C7.86837 11.7603 7.93097 11.544 7.99358 11.3505C8.01635 11.3277 8.03909 11.2424 8.03909 11.2196C8.08463 11.1342 8.1245 11.0488 8.17003 10.9634C8.1928 10.9407 8.19278 10.9008 8.21554 10.8781C8.21554 10.8553 8.23833 10.8325 8.23833 10.8325C8.4774 10.3373 8.77908 9.9275 9.16614 9.54045C9.87764 8.82894 10.7826 8.35651 11.7731 8.20282C12.0292 8.15729 12.2911 8.14021 12.5472 8.14021C12.7863 8.14021 13.0196 8.16298 13.2587 8.20282C13.2815 8.20282 13.3441 8.20282 13.3896 8.22559C13.4351 8.22559 13.4522 8.24836 13.4977 8.24836C13.714 8.2939 13.9303 8.33374 14.2093 8.44189L14.2946 8.46466C14.3573 8.48742 14.4256 8.52727 14.5109 8.55004C14.5736 8.59557 14.6646 8.61265 14.7272 8.65818C14.7727 8.65818 14.7898 8.68095 14.8354 8.70372C14.8809 8.72649 14.898 8.74926 14.9435 8.7891C15.0517 8.83464 15.1371 8.89725 15.2452 8.95986C15.3989 9.04524 15.5241 9.15339 15.7176 9.32415C15.8258 9.40953 15.9111 9.49491 15.9738 9.56321C16.4917 10.0812 16.856 10.639 17.0951 11.2651C17.1179 11.3277 17.1406 11.3733 17.1577 11.4359C17.1805 11.4814 17.1805 11.544 17.2033 11.5896C17.2033 11.6123 17.226 11.6522 17.226 11.6977C17.2715 11.8059 17.2886 11.9368 17.3342 12.1531L17.3569 12.3238C17.3569 12.3865 17.3797 12.4718 17.4025 12.5629V17.9248H17.3911ZM35.3665 47.1305H29.5037C29.3728 47.1305 29.2248 47.1305 29.0313 47.1077C28.7751 47.085 28.5133 47.0451 28.2116 46.954C28.166 46.9313 28.1262 46.9313 28.0579 46.9085C27.9953 46.9085 27.927 46.863 27.8644 46.8459C27.8188 46.8231 27.779 46.8004 27.7335 46.8004C27.6481 46.7548 27.5627 46.7377 27.4318 46.6694C27.1927 46.5385 26.9138 46.3905 26.7203 46.2596C26.6577 46.197 26.5666 46.1515 26.504 46.0889C26.4414 46.0262 26.3731 45.9807 26.3332 45.9352C26.2706 45.8726 26.2023 45.827 26.1397 45.7644C26.117 45.7189 26.0771 45.7018 26.0543 45.6563C25.9689 45.5709 25.8836 45.5083 25.7527 45.3546C25.6901 45.2692 25.6217 45.1838 25.5364 45.0529C25.4738 44.9675 25.4054 44.8822 25.3656 44.7968C25.3428 44.7512 25.3201 44.7114 25.303 44.6659C25.2404 44.5577 25.1721 44.4496 25.1095 44.3414C24.8078 43.6925 24.6541 43.0038 24.6541 42.2923V13.0126C24.6541 12.6483 24.6541 12.3011 24.6086 11.9368L24.5858 11.7205L24.563 11.5042C24.563 11.4587 24.5403 11.396 24.5403 11.3505L24.5175 11.2424C24.5175 11.157 24.4947 11.0488 24.4947 11.0033C24.4093 10.4455 24.2556 9.9275 24.1304 9.44937C24.0849 9.31846 24.0451 9.21031 23.9995 9.08508C23.9767 8.9997 23.9369 8.89156 23.8914 8.76064C23.8686 8.7151 23.8458 8.67526 23.8288 8.61265C23.806 8.55004 23.7661 8.48173 23.7661 8.48173C23.7434 8.39635 23.7035 8.31097 23.6808 8.22559H29.498C30.0786 8.22559 30.6592 8.33374 31.1601 8.52727C31.3536 8.58988 31.5243 8.65818 31.7008 8.74356C31.7236 8.76633 31.7463 8.76633 31.7634 8.7891C31.8943 8.85171 32.0025 8.92002 32.1106 8.98263C32.2586 9.09078 32.4123 9.19893 32.566 9.32984C32.6969 9.43799 32.8222 9.54614 32.9531 9.67705C33.1694 9.89335 33.3401 10.1096 33.5109 10.343C33.619 10.4967 33.7272 10.6675 33.8581 10.9236C34.2053 11.6123 34.3533 12.3238 34.3533 13.0809V42.3947C34.3761 44.0283 34.7233 45.6449 35.3665 47.1305ZM51.2984 42.372C51.2984 42.5029 51.2984 42.6281 51.2756 42.8273C51.2529 42.9753 51.2301 43.129 51.213 43.2599C51.1504 43.5616 51.0821 43.8177 51.0195 44.017C50.8886 44.3414 50.7804 44.5748 50.6324 44.8366C50.4389 45.1838 50.177 45.5253 49.8981 45.8043C48.9703 46.7321 47.7409 47.2273 46.4488 47.2273C46.1699 47.2273 45.8454 47.2045 45.4811 47.1419C45.2648 47.0963 45.0713 47.0337 44.855 46.9711C44.5078 46.8402 44.2062 46.6922 43.95 46.5385C43.8419 46.4759 43.7337 46.3848 43.6028 46.2995C43.4491 46.1913 43.3239 46.0832 43.1076 45.8669C43.0848 45.8669 43.0848 45.8669 43.062 45.8213H43.0393C43.0165 45.7986 42.9938 45.7587 42.9767 45.736C42.8913 45.6506 42.823 45.5652 42.7376 45.4969L42.7148 45.4514C42.6522 45.366 42.6067 45.2977 42.5213 45.1497L42.4359 45.0415C42.3904 44.9789 42.3278 44.8878 42.2822 44.8252L42.2367 44.7626C42.2139 44.6545 42.1741 44.5691 42.1286 44.4837C42.0831 44.4382 42.066 44.3756 42.0432 44.33C41.9977 44.2446 41.9578 44.1365 41.935 44.0511C41.9123 44.0056 41.8895 43.943 41.8724 43.9031C41.8724 43.8576 41.8497 43.8177 41.8497 43.7722C41.8269 43.7494 41.8269 43.7096 41.8041 43.6868C41.8041 43.6014 41.7814 43.5161 41.7586 43.4307C41.7358 43.3453 41.7131 43.2372 41.696 43.1745L41.6732 43.0436C41.6732 42.981 41.6732 42.9127 41.6504 42.8729C41.6049 42.594 41.5878 42.3321 41.5878 42.1158V37.437H46.4602C47.7295 37.437 48.959 37.955 49.864 38.86C50.7918 39.7878 51.287 40.9945 51.287 42.2866V42.372H51.2984Z" fill="white"/>
</svg>
