<svg width="88" height="88" viewBox="0 0 88 88" fill="none" xmlns="http://www.w3.org/2000/svg">
<path d="M79.2755 31.4377C81.2901 31.4762 83.3103 31.4432 85.3304 31.4212C86.5964 31.4046 87.4661 30.5845 87.4716 29.434C87.4771 28.2616 86.668 27.5295 85.3139 27.4965C83.2552 27.4469 81.1855 27.4029 79.1159 27.3864C78.3122 27.3809 77.9434 27.0726 77.9764 26.236C78.015 25.2286 78.037 24.2103 77.9709 23.2085C77.9049 22.1406 78.3838 21.8599 79.3636 21.8819C81.2901 21.926 83.2222 21.8819 85.1433 21.8654C86.5854 21.8489 87.4551 21.1278 87.4771 19.9444C87.4992 18.7058 86.6185 17.9572 85.0937 17.9352C83.1231 17.9132 81.147 17.8747 79.1764 17.8857C78.3728 17.8857 77.9709 17.5774 77.9819 16.7518C77.9874 16.2509 77.9544 15.7444 77.9324 15.2435C77.8388 12.717 76.3801 10.6969 73.9967 10.0088C73.094 9.75009 72.0922 9.7611 71.1344 9.7611C70.1876 9.75559 69.8464 9.37028 69.8629 8.43452C69.8849 6.46392 69.8408 4.48782 69.8023 2.51722C69.7803 1.10258 69.0097 0.265897 67.7877 0.287915C66.6262 0.309933 65.8721 1.14661 65.8501 2.45667C65.8336 3.56307 65.8336 4.66396 65.8226 5.75935C65.773 9.82715 65.773 9.79963 61.7108 9.75009C60.7199 9.74458 60.3291 9.44734 60.3401 8.41801C60.3677 6.34833 60.2796 4.28966 60.2686 2.21998C60.2631 0.948451 59.509 0.403509 58.3861 0.298924C57.2742 0.188835 56.3714 1.04753 56.3274 2.19796C56.2889 3.33739 56.3109 4.48782 56.3054 5.63275C56.2999 9.86568 56.2999 9.84366 52.089 9.74458C51.1422 9.72256 50.7844 9.41982 50.8064 8.46204C50.8339 6.44741 50.8119 4.42177 50.7624 2.40713C50.7349 1.06955 49.9532 0.271401 48.7808 0.28241C47.6193 0.28241 46.8377 1.10808 46.8157 2.42915C46.7716 4.44379 46.7221 6.46392 46.7661 8.48406C46.7882 9.45285 46.4359 9.79412 45.4836 9.73357C44.5258 9.67302 43.557 9.68403 42.5993 9.73357C41.6635 9.78311 41.2672 9.45285 41.2837 8.48406C41.3112 6.45842 41.2672 4.44379 41.2342 2.42915C41.2121 1.09707 40.4525 0.282411 39.2746 0.271402C38.0966 0.271402 37.359 1.07505 37.3315 2.41814C37.2709 4.48782 37.1994 6.54649 37.1939 8.60516C37.1939 9.43083 36.9242 9.77761 36.0765 9.73357C35.1187 9.68403 34.1499 9.67302 33.1921 9.73357C32.1903 9.79963 31.7995 9.44734 31.8105 8.41801C31.827 6.34833 31.7279 4.28966 31.6949 2.21998C31.6729 0.975973 30.9683 0.381491 29.8179 0.28241C28.7005 0.194339 27.8253 1.04753 27.7812 2.20347C27.7427 3.3539 27.7647 4.49883 27.7592 5.64926C27.7372 9.81614 27.7372 9.78311 23.6254 9.73908C22.6236 9.73357 22.2327 9.45835 22.2658 8.4125C22.3153 6.39787 22.2658 4.37223 22.2272 2.35759C22.2052 1.11909 21.3465 0.260393 20.1906 0.243879C19.1503 0.227366 18.2971 1.11358 18.2695 2.31356C18.22 4.05847 18.209 5.80339 18.198 7.5483C18.176 9.68954 18.176 9.75009 16.0182 9.75009C13.6403 9.75009 11.7523 10.6638 10.778 12.8271C10.2716 13.9555 10.167 15.2931 10.0844 16.5536C10.0183 17.5719 9.67157 17.9132 8.68076 17.8912C6.71016 17.8527 4.73406 17.9077 2.76346 17.9352C1.38735 17.9738 0.578193 18.7224 0.56168 19.8948C0.556175 21.0728 1.37084 21.8544 2.6864 21.8654C4.74507 21.8929 6.81475 21.9149 8.87342 21.8929C9.69909 21.8874 10.0459 22.2012 10.0128 23.0269C9.97431 24.0342 9.95229 25.0525 10.0183 26.0543C10.0899 27.1002 9.63303 27.4084 8.64774 27.4029C6.6331 27.3864 4.61296 27.4524 2.59283 27.5075C1.3268 27.535 0.578193 28.2561 0.56168 29.4065C0.556175 30.579 1.39285 31.4101 2.67539 31.4212C4.73406 31.4487 6.80374 31.4652 8.86241 31.4432C9.67707 31.4377 10.0459 31.7239 10.0183 32.5606C9.97982 33.5679 9.9578 34.5862 10.0239 35.588C10.0899 36.5733 9.66056 36.8541 8.74131 36.8541C6.67163 36.8596 4.61296 36.9421 2.5543 37.0137C1.27726 37.0577 0.539662 37.8008 0.56168 38.9678C0.578193 40.0797 1.38735 40.9053 2.57631 40.9494C3.77078 40.9934 4.95975 40.9879 6.15972 40.9934C10.0734 40.9989 10.0294 40.9989 10.0404 44.9071C10.0404 46.085 9.62753 46.3933 8.52664 46.3658C6.64411 46.3217 4.76709 46.4043 2.87906 46.4538C1.40937 46.4924 0.583697 47.2025 0.56168 48.4134C0.534157 49.6519 1.3323 50.384 2.79649 50.4391C3.89188 50.4831 4.99828 50.4996 6.09917 50.5216C10.1449 50.6042 10.1174 50.6042 10.0294 54.6665C10.0073 55.6463 9.66056 55.938 8.73581 55.927C6.62209 55.8995 4.51388 55.9105 2.40017 55.9711C1.34331 55.9986 0.56168 56.9178 0.56168 57.9692C0.567184 59.0756 1.29928 59.8407 2.44421 59.8847C3.63867 59.9343 4.82764 59.9343 6.02211 59.9728C10.2 60.0884 10.178 60.0884 10.0349 64.2498C9.99633 65.1305 9.70459 65.4553 8.81837 65.4497C6.70466 65.4112 4.59645 65.4332 2.48274 65.4773C1.3323 65.4993 0.534157 66.413 0.56168 67.5359C0.589202 68.6203 1.34882 69.3744 2.50476 69.413C4.15059 69.457 5.80743 69.457 7.45877 69.4845C10.3431 69.5341 9.92477 69.2864 10.0734 71.989C10.222 74.6807 11.6477 76.6843 14.0421 77.3394C14.9558 77.5871 15.9467 77.5981 16.9044 77.6091C17.8512 77.6256 18.187 78.0219 18.176 78.9577C18.1539 81.0164 18.1815 83.086 18.242 85.1447C18.2805 86.3282 19.1447 87.1593 20.2732 87.0713C21.4071 86.9887 22.1722 86.4162 22.2107 85.1722C22.2383 83.9778 22.2383 82.7888 22.2493 81.5943C22.2713 77.4495 22.2658 77.4715 26.4877 77.6201C27.3794 77.6586 27.7152 77.9669 27.7097 78.8366C27.7042 80.8182 27.7317 82.7888 27.7537 84.7594C27.7702 86.2236 28.4693 87.0548 29.6748 87.0878C30.9133 87.1263 31.6399 86.3172 31.6784 84.853C31.7279 82.8824 31.805 80.9063 31.805 78.9357C31.7995 78.0109 32.0967 77.5761 33.0765 77.6311C33.9903 77.6917 34.915 77.6972 35.8288 77.6311C36.8306 77.5596 37.2104 77.9008 37.1994 78.9467C37.1774 81.0054 37.2875 83.075 37.315 85.1337C37.337 86.3777 38.0195 86.9887 39.1865 87.0768C40.3204 87.1648 41.1791 86.3392 41.2176 85.1557C41.2562 84.0053 41.1956 82.8604 41.2452 81.7209C41.4598 76.7999 40.3644 77.7632 45.5662 77.6366C46.4689 77.6146 46.7661 77.9834 46.7496 78.8586C46.7276 80.8733 46.7661 82.8934 46.8102 84.908C46.8322 86.2621 47.5753 87.0713 48.7477 87.0878C49.9312 87.1098 50.7294 86.3227 50.7569 84.9906C50.8064 82.9209 50.8174 80.8622 50.8064 78.7926C50.8009 77.9834 51.1092 77.6146 51.9403 77.6366C52.9917 77.6752 54.054 77.6807 55.1054 77.6311C56.0246 77.5871 56.3109 78.0054 56.2999 78.8586C56.2779 80.8292 56.2999 82.8108 56.3164 84.7814C56.3329 86.2016 57.065 87.0603 58.276 87.0823C59.498 87.1098 60.2466 86.2786 60.2686 84.8475C60.3071 82.8328 60.3512 80.8127 60.3567 78.7981C60.3567 77.9944 60.6594 77.6036 61.4906 77.6366C62.4979 77.6752 63.5162 77.6807 64.5235 77.6311C65.4868 77.5871 65.8116 77.9999 65.8061 78.9357C65.7841 80.8622 65.8336 82.7943 65.8556 84.7154C65.8721 86.2456 66.6042 87.1153 67.8647 87.0933C69.0867 87.0768 69.7913 86.2401 69.8133 84.7924C69.8298 83.4604 69.8353 82.1283 69.8519 80.8017C69.8959 77.7687 69.8959 77.7687 72.8903 77.5486C75.3838 77.3559 77.5361 75.4128 77.8829 72.9854C77.9874 72.2588 77.993 71.5212 77.9874 70.7836C77.9709 69.8478 78.3838 69.49 79.3195 69.4955C81.3342 69.512 83.3598 69.457 85.3744 69.413C86.6845 69.3909 87.5102 68.5983 87.4882 67.4258C87.4661 66.2919 86.5854 65.4828 85.3194 65.4608C83.2937 65.4387 81.2791 65.4002 79.2645 65.4442C78.3012 65.4663 77.9379 65.103 77.9985 64.1562C78.048 63.2425 78.059 62.3177 77.993 61.404C77.9269 60.3856 78.3232 60.0113 79.3415 60.0223C81.4002 60.0223 83.4699 59.9508 85.5286 59.8847C86.7506 59.8462 87.5322 59.0315 87.4882 57.7215C87.29 56.8243 86.8166 55.9931 85.5726 55.9545C84.3781 55.916 83.1892 55.916 81.9947 55.916C77.9049 55.894 77.9324 55.8995 77.9819 51.8537C77.9985 50.7914 78.3783 50.5271 79.3581 50.5437C81.4277 50.5602 83.4919 50.4831 85.5561 50.4171C86.7726 50.3785 87.3946 49.6685 87.4827 48.5015C87.5652 47.4061 86.7175 46.5199 85.5396 46.4649C84.3011 46.3988 83.0571 46.3988 81.8241 46.3768C77.8553 46.3052 77.8884 46.3052 77.9874 42.2705C78.0095 41.3292 78.3177 40.9659 79.27 40.9824C81.3837 41.0099 83.4919 40.9879 85.6056 40.9329C86.8276 40.9053 87.3946 40.0962 87.4827 38.9678C87.5542 37.8944 86.7616 37.0852 85.6221 37.0247C84.3836 36.9586 83.1506 36.9531 81.9121 36.9201C77.8498 36.8045 77.8719 36.8045 77.9874 32.7092C77.993 31.7459 78.3397 31.4212 79.2755 31.4377ZM18.1429 19.1957C18.1374 18.1279 18.5943 17.8692 19.5466 17.8857C22.1667 17.9297 24.7813 17.9022 27.3904 17.9022C30.0106 17.9022 32.6252 17.9297 35.2453 17.8857C36.1645 17.8692 36.5829 18.1499 36.5388 19.1462C36.4783 20.5168 36.4728 21.8984 36.5444 23.2746C36.6049 24.3369 36.2801 24.7332 35.1682 24.7002C32.5481 24.6287 29.9335 24.6727 27.3134 24.6837C24.5887 24.7002 23.6639 25.6195 23.6419 28.2891C23.6254 30.4469 23.5758 32.6101 23.6584 34.7569C23.7024 35.9348 23.2621 36.3036 22.1502 36.2045C21.2805 36.133 20.4053 36.155 19.5356 36.2045C18.5503 36.2651 18.1319 35.9403 18.1374 34.889C18.187 29.6652 18.187 24.4305 18.1429 19.1957ZM18.1539 40.1457C18.1319 39.21 18.4237 38.8192 19.4035 38.8632C20.7796 38.9292 22.1557 38.9017 23.5318 38.8632C25.2162 38.8137 26.0914 38.0045 26.1574 36.3532C26.251 33.8266 26.3281 31.3056 26.3116 28.79C26.3061 27.6946 26.6804 27.3534 27.7482 27.3754C30.3188 27.4249 32.8949 27.4029 35.46 27.3589C38.4489 27.3148 39.0489 26.7314 39.192 23.7204C39.2636 22.2067 39.2856 20.6875 39.2525 19.1792C39.225 18.2545 39.4892 17.8527 40.48 17.8747C42.8635 17.9352 45.2579 17.9187 47.6413 17.8802C48.5331 17.8637 48.9239 18.2104 48.8248 19.1022C48.8083 19.2343 48.8083 19.3829 48.8248 19.515C49.2321 22.6195 48.2193 25.058 45.7863 27.1167C43.6176 28.9441 41.702 31.0689 39.7369 33.1275C39.0103 33.8872 38.3663 34.0853 37.3205 33.7606C34.8985 32.9954 32.1848 34.2229 31.0124 36.4632C29.8784 38.61 30.4839 41.4613 32.405 43.0796C34.0288 44.4502 36.8416 44.6759 38.592 43.586C40.7388 42.2484 41.7626 39.832 40.9699 37.41C40.6452 36.4027 40.8709 35.8522 41.5699 35.1697C44.0634 32.7257 46.4579 30.1882 48.9679 27.7662C50.8009 25.9993 51.6596 23.9956 51.544 21.3975C51.3844 17.9022 51.5055 17.8967 54.9348 17.8967C56.5916 17.8967 58.2374 17.9187 59.8943 17.8912C60.7034 17.8857 61.0447 18.1774 61.0447 19.0196C61.0172 22.7792 61.0062 26.5497 61.0447 30.3093C61.0612 31.267 60.6154 31.4707 59.7952 31.4597C58.0943 31.4377 56.3934 31.5257 54.7036 31.4542C53.3715 31.4046 52.2431 31.8175 51.3128 32.6817C49.733 34.1459 48.0817 35.5715 46.7331 37.2284C46.012 38.1091 45.4671 39.4852 45.5386 40.5916C45.7863 44.3511 43.1167 46.1126 40.7718 48.0997C40.3534 48.452 39.5498 48.452 38.9223 48.452C35.7132 48.4905 32.4986 48.4685 29.2895 48.4685C29.2895 48.474 29.2895 48.474 29.2895 48.474C26.0308 48.474 22.7777 48.4465 19.5135 48.496C18.5062 48.5125 18.1209 48.2098 18.1429 47.1694C18.2035 44.8245 18.198 42.4851 18.1539 40.1457ZM38.537 38.8467C38.559 40.2503 37.2269 41.6595 35.8673 41.665C34.4747 41.6815 33.1646 40.3054 33.1976 38.8742C33.2252 37.3935 34.3811 36.2706 35.8563 36.2816C37.348 36.2926 38.5094 37.4045 38.537 38.8467ZM69.8629 43.7677V67.7176C69.8629 69.501 69.8574 69.501 68.0244 69.501C66.973 69.5065 65.9107 69.4735 64.8593 69.5175C64.0226 69.5451 63.7254 69.2258 63.7419 68.3891C63.7804 66.2314 63.7199 64.0736 63.7584 61.9214C63.7969 59.8407 63.3181 57.9527 61.6172 56.6536C59.0906 54.7105 59.6576 52.0078 59.7567 49.4483C59.7732 49.063 60.5218 48.6391 61.0062 48.3529C64.0557 46.5419 64.6501 42.5292 62.2117 39.9641C60.6154 38.2797 58.6117 37.977 56.5145 38.6265C54.577 39.221 53.355 40.6356 53.0137 42.6723C52.6284 44.9016 53.2284 46.9162 55.2265 48.0226C56.7402 48.8593 57.1531 49.8941 56.9714 51.4354C56.6246 54.3693 57.4943 56.8518 59.8282 58.7673C60.6869 59.4719 61.0282 60.4242 61.0007 61.5691C60.9511 63.6718 60.9511 65.791 61.0667 67.8992C61.1328 69.1818 60.6924 69.5341 59.4319 69.5341C48.3349 69.49 37.2269 69.512 26.1244 69.512C23.9226 69.512 21.7208 69.4735 19.5246 69.5285C18.5172 69.5506 18.1044 69.2038 18.165 68.1745C18.2255 66.98 18.231 65.78 18.165 64.5966C18.1044 63.6113 18.5172 63.347 19.4475 63.3581C22.4805 63.3966 25.5024 63.3415 28.5354 63.3636C30.1262 63.3801 31.5518 62.9562 32.6197 61.7507C33.7371 60.4902 35.0802 59.9233 36.7535 60.0554C37.4801 60.1049 38.2232 60.0939 38.9553 60.0334C40.8048 59.8792 42.2084 60.1049 43.3809 62.0205C44.9772 64.6241 48.9074 64.7232 51.1367 62.6094C53.366 60.5067 53.3715 56.8518 51.1587 54.7271C48.9294 52.5803 45.0377 52.6243 43.4139 55.2335C42.1754 57.2426 40.7112 57.4848 38.7626 57.3252C37.8489 57.2536 36.9242 57.3527 36.0104 57.3197C34.205 57.2371 32.6417 57.7765 31.4307 59.1251C30.4014 60.2645 29.1794 60.6829 27.6491 60.6499C24.9409 60.5838 22.2327 60.6333 19.5301 60.6994C18.5227 60.7214 18.1319 60.3911 18.1539 59.3618C18.2145 57.1105 18.2255 54.8647 18.1539 52.6133C18.1154 51.5069 18.5282 51.2152 19.5796 51.2207C25.4529 51.2592 31.3426 50.962 37.1994 51.2923C42.225 51.573 44.9332 48.5676 47.4432 45.1273C48.0927 44.2355 48.0982 42.7714 48.1147 41.5659C48.1312 40.2283 48.5276 39.2045 49.4248 38.2302C53.0632 34.3055 53.0357 34.3 58.375 34.256C59.3383 34.2505 60.3126 34.2725 61.2594 34.1404C62.7841 33.9367 63.5382 33.1165 63.5878 31.5643C63.6814 27.4855 63.7419 23.4012 63.7419 19.3168C63.7419 18.2655 64.0061 17.8031 65.1235 17.8912C66.2189 17.9738 67.3308 17.9738 68.4262 17.8912C69.6042 17.8031 69.8904 18.3095 69.8849 19.4049C69.8409 27.524 69.8629 35.6376 69.8629 43.7677ZM58.353 46.3383C56.8888 46.3548 55.6063 45.1218 55.6008 43.6961C55.6008 42.2484 56.8668 40.9879 58.3145 41.0044C59.7567 41.0099 60.9346 42.1604 60.9622 43.586C61.0007 45.0832 59.8282 46.3162 58.353 46.3383ZM44.7735 58.6903C44.746 57.2041 45.979 55.9105 47.4212 55.9215C48.8468 55.938 50.0468 57.127 50.0688 58.5582C50.0963 60.0939 48.9349 61.2884 47.4212 61.2829C45.957 61.2829 44.801 60.1489 44.7735 58.6903Z" fill="white"/>
</svg>
