<svg width="426" height="171" viewBox="0 0 426 171" fill="none" xmlns="http://www.w3.org/2000/svg">
<path d="M409.292 33.9763C418.343 33.9763 425.681 26.5874 425.681 17.4727C425.681 8.35805 418.343 0.969147 409.292 0.969147C400.241 0.969147 392.903 8.35805 392.903 17.4727C392.903 26.5874 400.241 33.9763 409.292 33.9763Z" fill="white"/>
<path d="M313.948 129.986C322.999 129.986 330.337 122.597 330.337 113.482C330.337 104.368 322.999 96.9789 313.948 96.9789C304.896 96.9789 297.559 104.368 297.559 113.482C297.559 122.597 304.896 129.986 313.948 129.986Z" fill="white"/>
<path d="M425.686 42.1334V142.295C425.686 142.755 425.686 143.526 425.619 143.987C425.619 144.336 425.575 144.69 425.532 145.044C425.489 145.398 425.426 146.053 425.426 146.053C425.383 146.407 425.142 147.789 425.055 148.143C424.968 148.497 424.901 148.847 424.814 149.196C424.636 149.792 424.487 150.384 424.289 150.956C424.092 151.528 423.919 152.033 423.721 152.581C423.721 152.605 423.721 152.649 423.678 152.673C423.548 153.022 423.394 153.376 423.264 153.706C423.159 153.89 423.064 154.079 422.979 154.273V154.298C420.723 159.269 417.095 163.483 412.528 166.438C407.961 169.392 402.646 170.962 397.218 170.961C393.277 170.974 389.377 170.148 385.775 168.536C385.582 168.536 381.214 166.339 379.514 164.996C376.57 162.661 374.115 159.762 372.29 156.465L314.034 54.927H313.842L247.481 170.462C247.444 170.525 247.395 170.58 247.337 170.624C247.278 170.668 247.211 170.698 247.14 170.715C247.069 170.731 246.996 170.733 246.924 170.719C246.853 170.706 246.785 170.678 246.725 170.636L173.452 121.426C173.372 121.373 173.279 121.342 173.184 121.337C173.088 121.333 172.992 121.355 172.908 121.4C172.823 121.446 172.752 121.514 172.703 121.598C172.654 121.681 172.628 121.776 172.629 121.872V137.721C172.623 146.381 169.241 154.692 163.212 160.866C157.183 167.041 148.988 170.586 140.39 170.738C140.318 170.739 140.246 170.725 140.179 170.698C140.112 170.671 140.052 170.631 140 170.58C139.949 170.529 139.908 170.468 139.88 170.401C139.851 170.335 139.837 170.263 139.836 170.19V62.929C139.83 58.6394 138.132 54.5278 135.117 51.4978C132.102 48.4678 128.015 46.7672 123.755 46.7698H47.9448C40.4124 46.7698 33.8191 52.376 33.1882 59.9174C33.0055 61.922 33.2398 63.9431 33.8762 65.8515C34.5127 67.7599 35.5373 69.5136 36.8846 71.0009C38.2319 72.4882 39.8724 73.6762 41.7013 74.4892C43.5302 75.3022 45.5073 75.7222 47.5065 75.7226H78.4451C82.2725 75.7175 86.0855 76.1916 89.7967 77.1338C97.6133 79.0811 104.804 83.013 110.682 88.5545C116.56 94.096 120.93 101.062 123.375 108.788C126.348 118.207 126.348 128.322 123.375 137.741C120.324 147.327 114.329 155.69 106.254 161.625C98.1793 167.559 88.4418 170.759 78.4451 170.762H0.90592L0.356884 170.2C0.505873 161.541 4.02552 153.288 10.158 147.217C16.2905 141.146 24.5452 137.743 33.1449 137.741H77.7902C85.6934 137.741 92.6382 131.606 92.8356 123.647C92.8872 121.713 92.5529 119.788 91.8526 117.986C91.1522 116.184 90.1001 114.541 88.7584 113.156C87.4167 111.77 85.8126 110.67 84.0412 109.92C82.2698 109.17 80.3669 108.785 78.4451 108.788H47.5065C37.5048 108.782 27.7632 105.578 19.6853 99.6395C11.6075 93.7007 5.61027 85.333 2.55784 75.742C0.294035 68.6161 -0.26716 61.0527 0.919915 53.6672C2.10699 46.2816 5.0088 39.2827 9.38925 33.2397C13.7697 27.1967 19.505 22.2804 26.1285 18.8909C32.7521 15.5013 40.0767 13.7343 47.5065 13.7335H123.273C129.754 13.7303 136.171 15.0129 142.159 17.5079C148.147 20.0029 153.588 23.6615 158.171 28.2746C162.755 32.8877 166.391 38.365 168.871 44.3935C171.352 50.422 172.629 56.8836 172.629 63.4091V81.0669L172.605 81.1106L172.629 81.1349V81.0669L174.411 78.3996V78.3705L211.158 14.2476C211.193 14.1853 211.239 14.1307 211.296 14.0869C211.352 14.0431 211.416 14.011 211.485 13.9925C211.553 13.974 211.625 13.9694 211.695 13.9791C211.766 13.9887 211.833 14.0124 211.894 14.0487C213.162 14.8096 214.371 15.6656 215.511 16.6094C221.58 21.4948 225.706 28.4106 227.14 36.0997C228.575 43.7888 227.222 51.741 223.328 58.5109L200.105 99.0351C200.038 99.1529 200.017 99.2917 200.048 99.4239C200.078 99.5561 200.157 99.6719 200.268 99.748L235.845 123.735C235.905 123.776 235.972 123.804 236.044 123.817C236.115 123.831 236.188 123.829 236.259 123.813C236.329 123.797 236.396 123.766 236.454 123.722C236.512 123.679 236.56 123.623 236.596 123.56L291.572 27.7104L293.166 24.9412L293.315 24.6987C293.903 23.8298 294.547 23.0004 295.242 22.2157C297.577 19.5481 300.45 17.4115 303.668 15.9481C306.887 14.4846 310.378 13.7277 313.909 13.7277C317.441 13.7277 320.932 14.4846 324.15 15.9481C327.369 17.4115 330.241 19.5481 332.576 22.2157C333.29 23.0013 333.947 23.8376 334.541 24.7181C334.592 24.7881 334.635 24.8628 334.671 24.9412L336.266 27.7104L391.906 124.739C391.964 124.84 392.054 124.919 392.162 124.963C392.269 125.008 392.388 125.015 392.501 124.985C392.613 124.955 392.712 124.888 392.783 124.795C392.854 124.703 392.893 124.589 392.893 124.472V75.0048C392.894 66.267 396.335 57.8859 402.461 51.6974C408.586 45.5089 416.898 42.0175 425.575 41.988C425.608 41.9949 425.637 42.0133 425.657 42.04C425.678 42.0667 425.688 42.0999 425.686 42.1334Z" fill="white"/>
</svg>
