<svg width="161" height="51" viewBox="0 0 161 51" fill="none" xmlns="http://www.w3.org/2000/svg">
<rect x="0.585327" y="0.316895" width="160" height="50" rx="6" fill="url(#paint0_linear)"/>
<path d="M41.1023 23.0359C41.0463 23.1339 40.9857 23.2062 40.9203 23.2529C40.8597 23.2949 40.7827 23.3159 40.6893 23.3159C40.5913 23.3159 40.484 23.2809 40.3673 23.2109C40.2553 23.1362 40.12 23.0546 39.9613 22.9659C39.8027 22.8772 39.616 22.7979 39.4013 22.7279C39.1913 22.6532 38.9417 22.6159 38.6523 22.6159C38.391 22.6159 38.1623 22.6486 37.9663 22.7139C37.7703 22.7746 37.6047 22.8609 37.4693 22.9729C37.3387 23.0849 37.2407 23.2202 37.1753 23.3789C37.11 23.5329 37.0773 23.7032 37.0773 23.8899C37.0773 24.1279 37.1427 24.3262 37.2733 24.4849C37.4087 24.6436 37.586 24.7789 37.8053 24.8909C38.0247 25.0029 38.2743 25.1032 38.5543 25.1919C38.8343 25.2806 39.1213 25.3762 39.4153 25.4789C39.7093 25.5769 39.9963 25.6936 40.2763 25.8289C40.5563 25.9596 40.806 26.1276 41.0253 26.3329C41.2447 26.5336 41.4197 26.7809 41.5503 27.0749C41.6857 27.3689 41.7533 27.7259 41.7533 28.1459C41.7533 28.6032 41.674 29.0326 41.5153 29.4339C41.3613 29.8306 41.1327 30.1782 40.8293 30.4769C40.5307 30.7709 40.1643 31.0042 39.7303 31.1769C39.2963 31.3449 38.7993 31.4289 38.2393 31.4289C37.9173 31.4289 37.6 31.3962 37.2873 31.3309C36.9747 31.2702 36.6737 31.1816 36.3843 31.0649C36.0997 30.9482 35.8313 30.8082 35.5793 30.6449C35.3273 30.4816 35.1033 30.2996 34.9073 30.0989L35.4603 29.1959C35.507 29.1306 35.5677 29.0769 35.6423 29.0349C35.717 28.9882 35.7963 28.9649 35.8803 28.9649C35.997 28.9649 36.123 29.0139 36.2583 29.1119C36.3937 29.2052 36.5547 29.3102 36.7413 29.4269C36.928 29.5436 37.145 29.6509 37.3923 29.7489C37.6443 29.8422 37.9453 29.8889 38.2953 29.8889C38.832 29.8889 39.2473 29.7629 39.5413 29.5109C39.8353 29.2542 39.9823 28.8879 39.9823 28.4119C39.9823 28.1459 39.9147 27.9289 39.7793 27.7609C39.6487 27.5929 39.4737 27.4529 39.2543 27.3409C39.035 27.2242 38.7853 27.1262 38.5053 27.0469C38.2253 26.9676 37.9407 26.8812 37.6513 26.7879C37.362 26.6946 37.0773 26.5826 36.7973 26.4519C36.5173 26.3212 36.2677 26.1509 36.0483 25.9409C35.829 25.7309 35.6517 25.4696 35.5163 25.1569C35.3857 24.8396 35.3203 24.4499 35.3203 23.9879C35.3203 23.6192 35.3927 23.2599 35.5373 22.9099C35.6867 22.5599 35.9013 22.2496 36.1813 21.9789C36.4613 21.7082 36.8067 21.4912 37.2173 21.3279C37.628 21.1646 38.0993 21.0829 38.6313 21.0829C39.2287 21.0829 39.7793 21.1762 40.2833 21.3629C40.7873 21.5496 41.2167 21.8109 41.5713 22.1469L41.1023 23.0359ZM47.4699 29.7979C47.8339 29.7979 48.1583 29.7372 48.4429 29.6159C48.7323 29.4946 48.9749 29.3242 49.1709 29.1049C49.3669 28.8856 49.5163 28.6196 49.6189 28.3069C49.7263 27.9942 49.7799 27.6442 49.7799 27.2569V21.1949H51.6629V27.2569C51.6629 27.8589 51.5649 28.4166 51.3689 28.9299C51.1776 29.4386 50.8999 29.8796 50.5359 30.2529C50.1766 30.6216 49.7379 30.9109 49.2199 31.1209C48.7019 31.3262 48.1186 31.4289 47.4699 31.4289C46.8166 31.4289 46.2309 31.3262 45.7129 31.1209C45.1949 30.9109 44.7539 30.6216 44.3899 30.2529C44.0306 29.8796 43.7529 29.4386 43.5569 28.9299C43.3656 28.4166 43.2699 27.8589 43.2699 27.2569V21.1949H45.1529V27.2499C45.1529 27.6372 45.2043 27.9872 45.3069 28.2999C45.4143 28.6126 45.5659 28.8809 45.7619 29.1049C45.9626 29.3242 46.2053 29.4946 46.4899 29.6159C46.7793 29.7372 47.1059 29.7979 47.4699 29.7979ZM57.5735 29.8469C57.9235 29.8469 58.2175 29.8049 58.4555 29.7209C58.6935 29.6369 58.8825 29.5249 59.0225 29.3849C59.1672 29.2449 59.2699 29.0816 59.3305 28.8949C59.3959 28.7082 59.4285 28.5099 59.4285 28.2999C59.4285 28.0806 59.3935 27.8846 59.3235 27.7119C59.2535 27.5346 59.1439 27.3852 58.9945 27.2639C58.8452 27.1379 58.6515 27.0422 58.4135 26.9769C58.1802 26.9116 57.8979 26.8789 57.5665 26.8789H55.6695V29.8469H57.5735ZM55.6695 22.6509V25.5769H57.1675C57.8115 25.5769 58.2969 25.4602 58.6235 25.2269C58.9549 24.9936 59.1205 24.6226 59.1205 24.1139C59.1205 23.5866 58.9712 23.2109 58.6725 22.9869C58.3739 22.7629 57.9072 22.6509 57.2725 22.6509H55.6695ZM57.2725 21.1949C57.9352 21.1949 58.5022 21.2579 58.9735 21.3839C59.4449 21.5099 59.8299 21.6896 60.1285 21.9229C60.4319 22.1562 60.6535 22.4386 60.7935 22.7699C60.9335 23.1012 61.0035 23.4746 61.0035 23.8899C61.0035 24.1279 60.9685 24.3566 60.8985 24.5759C60.8285 24.7906 60.7189 24.9936 60.5695 25.1849C60.4249 25.3716 60.2382 25.5419 60.0095 25.6959C59.7855 25.8499 59.5172 25.9806 59.2045 26.0879C60.5952 26.4006 61.2905 27.1519 61.2905 28.3419C61.2905 28.7712 61.2089 29.1679 61.0455 29.5319C60.8822 29.8959 60.6442 30.2109 60.3315 30.4769C60.0189 30.7382 59.6339 30.9436 59.1765 31.0929C58.7192 31.2422 58.1965 31.3169 57.6085 31.3169H53.7865V21.1949H57.2725ZM73.9774 21.1949V31.3169H72.3184V24.7789C72.3184 24.5176 72.3324 24.2352 72.3604 23.9319L69.3014 29.6789C69.1567 29.9542 68.9351 30.0919 68.6364 30.0919H68.3704C68.0717 30.0919 67.8501 29.9542 67.7054 29.6789L64.6114 23.9109C64.6254 24.0649 64.6371 24.2166 64.6464 24.3659C64.6557 24.5152 64.6604 24.6529 64.6604 24.7789V31.3169H63.0014V21.1949H64.4224C64.5064 21.1949 64.5787 21.1972 64.6394 21.2019C64.7001 21.2066 64.7537 21.2182 64.8004 21.2369C64.8517 21.2556 64.8961 21.2859 64.9334 21.3279C64.9754 21.3699 65.0151 21.4259 65.0524 21.4959L68.0834 27.1169C68.1627 27.2662 68.2351 27.4202 68.3004 27.5789C68.3704 27.7376 68.4381 27.9009 68.5034 28.0689C68.5687 27.8962 68.6364 27.7306 68.7064 27.5719C68.7764 27.4086 68.8511 27.2522 68.9304 27.1029L71.9194 21.4959C71.9567 21.4259 71.9964 21.3699 72.0384 21.3279C72.0804 21.2859 72.1247 21.2556 72.1714 21.2369C72.2227 21.2182 72.2787 21.2066 72.3394 21.2019C72.4001 21.1972 72.4724 21.1949 72.5564 21.1949H73.9774ZM78.1258 31.3169H76.2358V21.1949H78.1258V31.3169ZM87.462 22.7419H84.41V31.3169H82.527V22.7419H79.475V21.1949H87.462V22.7419ZM100.3 21.1949V31.3169H99.334C99.1847 31.3169 99.0587 31.2936 98.956 31.2469C98.858 31.1956 98.7623 31.1116 98.669 30.9949L93.384 24.2469C93.412 24.5549 93.426 24.8396 93.426 25.1009V31.3169H91.767V21.1949H92.754C92.8333 21.1949 92.901 21.1996 92.957 21.2089C93.0177 21.2136 93.069 21.2276 93.111 21.2509C93.1577 21.2696 93.202 21.2999 93.244 21.3419C93.286 21.3792 93.3327 21.4306 93.384 21.4959L98.69 28.2719C98.676 28.1086 98.6643 27.9476 98.655 27.7889C98.6457 27.6302 98.641 27.4832 98.641 27.3479V21.1949H100.3ZM112.207 26.2559C112.207 26.9979 112.083 27.6862 111.836 28.3209C111.593 28.9509 111.248 29.4969 110.8 29.9589C110.352 30.4209 109.813 30.7826 109.183 31.0439C108.553 31.3006 107.853 31.4289 107.083 31.4289C106.318 31.4289 105.62 31.3006 104.99 31.0439C104.36 30.7826 103.819 30.4209 103.366 29.9589C102.918 29.4969 102.57 28.9509 102.323 28.3209C102.076 27.6862 101.952 26.9979 101.952 26.2559C101.952 25.5139 102.076 24.8279 102.323 24.1979C102.57 23.5632 102.918 23.0149 103.366 22.5529C103.819 22.0909 104.36 21.7316 104.99 21.4749C105.62 21.2136 106.318 21.0829 107.083 21.0829C107.596 21.0829 108.079 21.1436 108.532 21.2649C108.985 21.3816 109.4 21.5496 109.778 21.7689C110.156 21.9836 110.494 22.2472 110.793 22.5599C111.096 22.8679 111.353 23.2132 111.563 23.5959C111.773 23.9786 111.932 24.3939 112.039 24.8419C112.151 25.2899 112.207 25.7612 112.207 26.2559ZM110.282 26.2559C110.282 25.7006 110.207 25.2036 110.058 24.7649C109.909 24.3216 109.696 23.9459 109.421 23.6379C109.146 23.3299 108.81 23.0942 108.413 22.9309C108.021 22.7676 107.578 22.6859 107.083 22.6859C106.588 22.6859 106.143 22.7676 105.746 22.9309C105.354 23.0942 105.018 23.3299 104.738 23.6379C104.463 23.9459 104.25 24.3216 104.101 24.7649C103.952 25.2036 103.877 25.7006 103.877 26.2559C103.877 26.8112 103.952 27.3106 104.101 27.7539C104.25 28.1926 104.463 28.5659 104.738 28.8739C105.018 29.1772 105.354 29.4106 105.746 29.5739C106.143 29.7372 106.588 29.8189 107.083 29.8189C107.578 29.8189 108.021 29.7372 108.413 29.5739C108.81 29.4106 109.146 29.1772 109.421 28.8739C109.696 28.5659 109.909 28.1926 110.058 27.7539C110.207 27.3106 110.282 26.8112 110.282 26.2559ZM127.124 21.1949L123.981 31.3169H122.28L120.068 24.4009C120.007 24.2329 119.951 24.0276 119.9 23.7849C119.872 23.9016 119.844 24.0112 119.816 24.1139C119.788 24.2166 119.757 24.3122 119.725 24.4009L117.492 31.3169H115.784L112.648 21.1949H114.223C114.386 21.1949 114.521 21.2346 114.629 21.3139C114.741 21.3886 114.815 21.4912 114.853 21.6219L116.575 27.6769C116.612 27.8262 116.647 27.9896 116.68 28.1669C116.717 28.3396 116.754 28.5216 116.792 28.7129C116.829 28.5169 116.869 28.3326 116.911 28.1599C116.957 27.9872 117.006 27.8262 117.058 27.6769L119.046 21.6219C119.083 21.5146 119.155 21.4166 119.263 21.3279C119.375 21.2392 119.51 21.1949 119.669 21.1949H120.222C120.385 21.1949 120.518 21.2346 120.621 21.3139C120.723 21.3932 120.8 21.4959 120.852 21.6219L122.833 27.6769C122.931 27.9662 123.019 28.2999 123.099 28.6779C123.159 28.3092 123.227 27.9756 123.302 27.6769L125.024 21.6219C125.052 21.5052 125.122 21.4049 125.234 21.3209C125.35 21.2369 125.488 21.1949 125.647 21.1949H127.124Z" fill="white"/>
<defs>
<linearGradient id="paint0_linear" x1="80.5853" y1="0.316895" x2="80.5853" y2="50.3169" gradientUnits="userSpaceOnUse">
<stop stop-color="#DA454B"/>
<stop offset="1" stop-color="#E63B6E"/>
</linearGradient>
</defs>
</svg>
