<svg width="244" height="204" viewBox="0 0 244 204" fill="none" xmlns="http://www.w3.org/2000/svg">
<g clip-path="url(#clip0)">
<path d="M180.806 96.6319C180.009 93.0942 175.537 92.4464 172.41 91.4717C170.881 90.9859 169.704 89.7713 169.231 88.2267C164.058 71.3727 171.984 49.7727 160.558 36.2136C160.492 36.1357 160.436 36.0485 160.371 35.9707C155.204 28.5714 150.496 25.9181 156.441 20.4402C157.247 19.7146 157.811 18.7555 157.998 17.7122C159.209 10.9825 158.343 8.64681 158.49 6.22398C158.636 3.75754 156.824 1.58384 154.401 1.18211C129.587 -2.81339 86.9196 10.7551 93.2071 19.4219C93.5808 19.9388 93.8673 20.515 94.0075 21.1409C94.3562 22.6295 94.5431 23.897 94.3967 24.8655C94.3282 26.5845 94.8203 27.7181 94.7985 28.7769C94.7767 29.5274 95.004 30.253 95.3341 30.9164C99.3732 39.306 94.7299 36.7087 89.6943 37.6928C88.5825 37.9233 87.5767 38.5804 86.8947 39.4959C63.4355 69.6973 65.7275 47.8544 52.1217 62.0208C51.2497 62.9021 50.795 64.1011 50.795 65.325C50.7701 67.3181 50.7888 68.9717 50.7857 70.2174C50.8044 71.6374 51.421 72.9828 52.5203 73.8983C70.2556 88.5693 93.8331 100.11 111.213 115.703C111.652 116.124 112.026 116.575 112.291 117.114C114.707 122.087 124.389 122.224 125.342 126.366C125.956 128.979 128.749 130.492 131.384 129.935C134.283 129.3 137.404 127.986 140.365 127.702C141.025 127.637 141.667 127.472 142.228 127.166C145.435 125.454 147.699 122.041 150.029 120.381C159.162 112.673 170.208 107.712 178.847 101.446C180.37 100.344 181.223 98.4848 180.806 96.6319ZM150.452 13.4302C151.797 13.4333 152.897 14.5357 152.894 15.9029C152.89 17.2482 151.788 18.3475 150.443 18.3444C149.097 18.3413 147.998 17.2389 148.001 15.8935C148.004 14.5264 149.107 13.4271 150.452 13.4302ZM151.62 46.1385C151.62 46.8205 151.056 47.3593 150.396 47.3593C149.736 47.3593 149.197 46.8174 149.197 46.1354C149.197 45.4752 149.739 44.9364 150.399 44.9364C151.059 44.9364 151.62 45.4783 151.62 46.1385ZM144.89 25.6596C144.887 27.0049 143.785 28.1042 142.439 28.1011C141.094 28.098 139.995 26.9956 139.998 25.6503C140.001 24.3049 141.103 23.2056 142.449 23.2087C143.791 23.2119 144.89 24.3143 144.89 25.6596ZM139.945 11.7143C140.605 11.7143 141.166 12.2562 141.166 12.9164C141.166 13.5984 140.602 14.1371 139.942 14.1371C139.281 14.1371 138.743 13.5953 138.743 12.9132C138.743 12.253 139.285 11.7143 139.945 11.7143ZM113.829 14.6136C114.489 14.6136 115.028 15.1555 115.028 15.8375C115.028 16.4977 114.486 17.0364 113.826 17.0364C113.166 17.0364 112.605 16.4946 112.605 15.8344C112.605 15.1523 113.169 14.6105 113.829 14.6136ZM101.556 15.8157C102.902 15.8188 104.001 16.8994 103.998 18.2665C103.995 19.6119 102.892 20.7112 101.547 20.7081C100.202 20.7049 99.1023 19.6025 99.1054 18.2572C99.1085 16.8901 100.211 15.8126 101.556 15.8157ZM86.1597 72.3599C84.8144 72.3568 83.7275 71.2637 83.7275 69.9215C83.7306 68.5544 84.8237 67.4769 86.1659 67.48C87.5331 67.4831 88.6324 68.5637 88.6293 69.9309C88.6293 71.2731 87.5268 72.363 86.1597 72.3599ZM138.135 112.735C136.768 112.732 135.681 111.63 135.681 110.263C135.685 108.917 136.778 107.83 138.142 107.834C139.487 107.837 140.586 108.93 140.583 110.272C140.583 111.636 139.478 112.735 138.135 112.735ZM161.501 105.853C159.2 105.85 157.219 104.48 156.329 102.518L126.267 108.528C125.909 111.767 123.172 114.283 119.837 114.28C116.255 114.274 113.362 111.371 113.368 107.79C113.371 106.61 113.702 105.51 114.243 104.564L100.65 90.1637C99.6908 90.7025 98.6009 91.0295 97.4113 91.0295C93.8299 91.0232 90.9369 88.1208 90.9431 84.5395C90.9493 81.6433 92.8583 79.1987 95.4929 78.3765L94.322 61.0679C93.123 60.8468 92.086 60.2364 91.2857 59.3894L74.9113 68.0219C75.1199 68.7288 75.2383 69.4886 75.2383 70.2579C75.232 74.5554 71.7566 78.0309 67.4466 78.0215C63.1397 78.0153 59.6642 74.5274 59.6705 70.2298C59.6767 65.9447 63.1646 62.4475 67.4715 62.4537C69.9068 62.4568 72.0867 63.5966 73.5037 65.3406L89.878 56.7205C89.7908 56.325 89.7348 55.917 89.7379 55.4748C89.7441 52.3357 92.3133 49.7821 95.4524 49.7883C98.604 49.7945 101.145 52.3544 101.139 55.4935C101.136 57.9817 99.5351 60.0838 97.3178 60.8748L98.4888 78.1835C100.317 78.4949 101.868 79.5319 102.836 80.9987L117.856 72.7056C117.625 71.9551 117.485 71.1516 117.485 70.3264C117.492 66.0412 120.979 62.544 125.286 62.5502C125.694 62.5502 126.112 62.597 126.51 62.6624L132.408 47.4371C131.01 46.4001 130.101 44.734 130.104 42.8499C130.107 40.8662 131.122 39.1285 132.658 38.0945L128.721 26.024C128.413 26.0551 128.105 26.0769 127.775 26.0769C125.539 26.0738 123.524 25.1209 122.129 23.6323L106.128 33.6195C106.15 33.7627 106.171 33.8842 106.171 34.0368C106.168 35.9987 104.568 37.5714 102.631 37.5683C100.681 37.5651 99.0867 35.9862 99.0898 34.0274C99.0929 32.0779 100.694 30.4835 102.643 30.4866C103.338 30.4866 103.985 30.7202 104.537 31.0721L120.515 21.0631C120.185 20.1911 120.002 19.2568 120.002 18.2852C120.008 13.9783 123.496 10.5029 127.803 10.5091C132.11 10.5153 135.576 14.0032 135.566 18.3101C135.56 21.2281 133.959 23.7506 131.577 25.0897L135.535 37.1696H135.809C138.97 37.1759 141.511 39.7233 141.505 42.8624C141.505 43.5662 141.38 44.2295 141.15 44.8336L152.296 52.8402C153.267 52.0586 154.513 51.5759 155.877 51.579C159.029 51.5852 161.591 54.1451 161.585 57.2842C161.579 60.4357 159.01 62.9987 155.858 62.9925C152.719 62.9862 150.166 60.417 150.172 57.2655C150.172 56.5835 150.306 55.9233 150.527 55.3067L139.39 47.2907C138.41 48.0817 137.151 48.5769 135.787 48.5738C135.601 48.5738 135.414 48.552 135.227 48.5302L129.319 63.69C131.574 65.0603 133.059 67.5298 133.053 70.3513C133.047 74.6489 129.571 78.1243 125.261 78.1149C122.882 78.1118 120.746 77.0281 119.329 75.3495L103.87 83.8731C103.892 84.1035 103.892 84.3371 103.892 84.5551C103.889 85.8661 103.512 87.0651 102.852 88.0772L116.346 102.356C117.361 101.696 118.563 101.325 119.861 101.325C122.636 101.328 124.969 103.075 125.903 105.523L155.846 99.5468C156.139 96.6724 158.565 94.4395 161.529 94.4457C164.668 94.452 167.209 96.9994 167.203 100.173C167.191 103.318 164.64 105.859 161.501 105.853ZM101.466 69.9495C101.469 68.5824 102.571 67.5049 103.917 67.508C105.284 67.5111 106.371 68.5918 106.371 69.9589C106.368 71.3042 105.275 72.3911 103.911 72.388C102.562 72.388 101.463 71.2949 101.466 69.9495ZM108.75 48.5364C108.753 45.9267 110.861 43.8029 113.474 43.806C116.084 43.8091 118.186 45.9392 118.183 48.552C118.18 51.1648 116.071 53.2637 113.459 53.2606C110.846 53.2544 108.747 51.1461 108.75 48.5364ZM161.18 74.0821C161.177 75.4274 160.075 76.5267 158.73 76.5236C157.362 76.5205 156.276 75.4181 156.276 74.0727C156.279 72.7274 157.372 71.6281 158.736 71.6312C160.081 71.6343 161.18 72.7367 161.18 74.0821ZM141.695 64.6741C141.698 63.3288 142.791 62.2295 144.146 62.2326C145.513 62.2357 146.6 63.3381 146.6 64.6835C146.597 66.0288 145.504 67.1281 144.14 67.125C142.782 67.1219 141.695 66.0194 141.695 64.6741ZM143.984 93.144C143.981 95.436 142.115 97.2952 139.802 97.289C137.5 97.2859 135.619 95.4205 135.622 93.1284C135.625 90.8052 137.513 88.9461 139.814 88.9492C142.128 88.9554 143.987 90.8208 143.984 93.144ZM126.277 88.9305C126.274 91.562 124.131 93.6641 121.521 93.661C118.899 93.6578 116.766 91.5495 116.769 88.9149C116.772 86.2803 118.915 84.1814 121.537 84.1845C124.147 84.1876 126.28 86.2959 126.277 88.9305Z" fill="#EA5371"/>
<path d="M55.0054 203.657H72.6068V194.648H64.0147C60.4957 198.167 58.5244 200.138 55.0054 203.657Z" fill="#1A1A1A"/>
<path d="M117.638 178.345H94.4808V186.99H107.349C105.38 191.235 100.849 194.872 94.9822 194.872C91.1829 194.872 87.9566 193.53 85.3095 190.852C82.622 188.164 81.2798 184.932 81.2798 181.142C81.2798 177.358 82.622 174.125 85.3095 171.438C87.9721 168.735 91.1984 167.377 94.9822 167.377C98.6943 167.377 101.921 168.735 104.661 171.438L111.123 164.976C107.442 161.354 101.889 158.29 94.9292 158.29L94.9074 158.206C88.5856 158.206 83.2043 160.451 78.7666 164.945C74.2884 169.46 72.0524 174.857 72.0524 181.139C72.0524 187.485 74.2915 192.873 78.7666 197.311C83.1825 201.764 88.5638 203.997 94.9074 203.997C101.192 203.997 106.579 201.767 111.07 197.311C115.523 192.888 118.289 186.775 117.638 178.345Z" fill="#1A1A1A"/>
<path d="M148.833 167.492V158.452H121.646V203.71H148.833V194.71H130.708V185.617H144.302V176.586H130.708V167.492H148.833Z" fill="#1A1A1A"/>
<path d="M175.378 187.323C177.932 186.321 179.19 185.377 180.775 183.153C182.675 180.466 183.631 177.604 183.631 174.571V173.39C183.631 168.405 182.008 165.904 179.261 163.154C176.543 160.467 172.485 158.57 167.459 158.57H152.747L152.778 203.657H161.841V183.717L174.786 203.657H185.863L175.378 187.323ZM168.324 180.021H165.307V179.999H161.81V167.548H166.904C169.087 167.548 171.32 168.196 172.494 169.339C173.69 170.591 174.285 172.033 174.285 173.677C174.282 177.109 171.629 180.021 168.324 180.021Z" fill="#1A1A1A"/>
<path d="M189.753 158.567V203.654H198.815V158.567H189.753Z" fill="#1A1A1A"/>
<path d="M223.293 157.642L202.73 203.657H212.527L215.576 196.803H231.013L234.062 203.657H243.881L223.293 157.642ZM219.148 188.806L223.318 179.264L227.432 188.806H219.148Z" fill="#1A1A1A"/>
<path d="M21.095 157.517L20.9798 157.779L0.48536 203.657L0.329651 203.997H10.2172L13.2971 197.074H28.8898L31.8141 203.657L31.9698 203.997H41.8885L21.095 157.517ZM16.9096 188.989L16.9937 188.806L21.0546 179.519L21.1231 179.357L25.2774 188.989H16.9096Z" fill="#EA5371"/>
<path d="M55.0054 157.517H45.8497V203.654H55.0054V157.517Z" fill="#EA5371"/>
</g>
<defs>
<clipPath id="clip0">
<rect width="243.551" height="203.531" fill="white" transform="translate(0.329651 0.465942)"/>
</clipPath>
</defs>
</svg>
