<svg width="180" height="126" viewBox="0 0 180 126" fill="none" xmlns="http://www.w3.org/2000/svg">
<path d="M172.671 13.6343C176.48 13.6343 179.567 10.6215 179.567 6.90503C179.567 3.18857 176.48 0.175781 172.671 0.175781C168.863 0.175781 165.776 3.18857 165.776 6.90503C165.776 10.6215 168.863 13.6343 172.671 13.6343Z" fill="white"/>
<path d="M132.556 52.7812C136.364 52.7812 139.451 49.7685 139.451 46.052C139.451 42.3355 136.364 39.3228 132.556 39.3228C128.747 39.3228 125.66 42.3355 125.66 46.052C125.66 49.7685 128.747 52.7812 132.556 52.7812Z" fill="white"/>
<path d="M90.7215 93.5039H90.5432L85.299 107.631H95.9658L90.7215 93.5039ZM90.7215 93.5039H90.5432L85.299 107.631H95.9658L90.7215 93.5039ZM0.585266 83.4448V125.457H179.585V83.4448H0.585266ZM53.0759 119.873H35.0596V88.5624H39.1812V116.027H53.0759V119.873ZM100.493 119.873L97.4004 111.388H83.9089L80.7721 119.873H76.2007L88.3021 88.5584H92.9627L105.064 119.873H100.493ZM149.433 117.34C147.577 119.028 145.291 119.873 142.576 119.873H130.345V88.5624H141.952C144.373 88.5178 146.718 89.3927 148.491 91.0025C150.308 92.6095 151.216 94.6383 151.216 97.089C151.216 100.178 149.767 102.353 146.87 103.614V103.788C148.447 104.269 149.827 105.225 150.813 106.519C151.793 107.801 152.313 109.363 152.292 110.963C152.298 113.52 151.345 115.646 149.433 117.34ZM142.576 105.75H134.471V116.033H142.762C143.471 116.043 144.173 115.912 144.828 115.649C145.483 115.386 146.076 114.996 146.572 114.502C147.061 114.027 147.448 113.461 147.71 112.837C147.972 112.214 148.103 111.545 148.096 110.872C148.098 110.201 147.961 109.538 147.691 108.921C147.421 108.305 147.025 107.748 146.527 107.287C145.47 106.256 144.152 105.75 142.576 105.75ZM145.615 100.546C146.6 99.5568 147.095 98.4277 147.095 97.1839C147.095 95.9401 146.61 94.8486 145.66 93.8599C145.205 93.392 144.655 93.022 144.045 92.7734C143.435 92.5248 142.779 92.4032 142.118 92.4164H134.462V101.995H141.948C142.629 102.011 143.307 101.89 143.939 101.641C144.571 101.392 145.144 101.019 145.624 100.546H145.615ZM90.5432 93.5039L85.299 107.631H95.9658L90.7215 93.5039H90.5432Z" fill="white"/>
<path d="M179.569 16.9601V57.7997C179.569 57.9876 179.569 58.302 179.541 58.4898C179.541 58.6322 179.522 58.7766 179.504 58.9209C179.486 59.0653 179.46 59.3322 179.46 59.3322C179.441 59.4766 179.34 60.0401 179.304 60.1845C179.267 60.3288 179.239 60.4712 179.202 60.6136C179.127 60.8568 179.065 61.098 178.981 61.3314C178.898 61.5647 178.825 61.7704 178.742 61.9938C178.742 62.0037 178.742 62.0215 178.724 62.0314C178.669 62.1738 178.605 62.3181 178.55 62.4526C178.506 62.5276 178.466 62.6049 178.43 62.6839V62.6938C177.481 64.721 175.955 66.4392 174.033 67.6438C172.111 68.8484 169.875 69.4886 167.591 69.4882C165.933 69.4935 164.292 69.1565 162.777 68.4995C162.696 68.4995 160.858 67.6037 160.142 67.056C158.904 66.1039 157.871 64.9217 157.103 63.5777L132.592 22.1765H132.511L104.59 69.2845C104.575 69.3104 104.554 69.3329 104.529 69.3507C104.505 69.3685 104.477 69.3811 104.447 69.3877C104.417 69.3944 104.386 69.395 104.356 69.3895C104.326 69.384 104.297 69.3725 104.272 69.3557L73.4428 49.2909C73.4092 49.269 73.3701 49.2565 73.3297 49.2546C73.2894 49.2527 73.2492 49.2616 73.2136 49.2803C73.178 49.299 73.1483 49.3268 73.1277 49.3607C73.107 49.3946 73.0962 49.4333 73.0963 49.4728V55.935C73.0937 59.4658 71.671 62.8545 69.1343 65.3721C66.5976 67.8897 63.1495 69.3351 59.5319 69.3973C59.5016 69.3975 59.4715 69.3919 59.4434 69.3809C59.4152 69.3698 59.3896 69.3534 59.368 69.3326C59.3463 69.3119 59.3291 69.2872 59.3173 69.2599C59.3054 69.2327 59.2992 69.2034 59.2989 69.1738V25.4392C59.2962 23.6902 58.5821 22.0137 57.3134 20.7783C56.0447 19.5428 54.3252 18.8494 52.5329 18.8505H20.6361C17.4669 18.8505 14.6928 21.1364 14.4273 24.2113C14.3504 25.0287 14.449 25.8527 14.7168 26.6308C14.9846 27.409 15.4157 28.1241 15.9825 28.7305C16.5494 29.3369 17.2397 29.8213 18.0092 30.1528C18.7787 30.4843 19.6105 30.6555 20.4517 30.6557H33.469C35.0793 30.6536 36.6836 30.8469 38.2451 31.2311C41.5339 32.0251 44.5593 33.6283 47.0325 35.8878C49.5058 38.1473 51.3444 40.9876 52.3728 44.1377C53.6237 47.9781 53.6237 52.1025 52.3728 55.9429C51.0891 59.8516 48.5668 63.2615 45.1694 65.6813C41.772 68.1011 37.675 69.4057 33.469 69.4072H0.844675L0.613671 69.1778C0.676357 65.6474 2.15723 62.2822 4.73744 59.8069C7.31765 57.3315 10.7908 55.9439 14.4091 55.9429H33.1934C36.5186 55.9429 39.4406 53.4415 39.5237 50.1965C39.5454 49.4078 39.4047 48.6228 39.1101 47.888C38.8154 47.1532 38.3727 46.4836 37.8082 45.9187C37.2437 45.3538 36.5688 44.9051 35.8235 44.5992C35.0782 44.2933 34.2775 44.1364 33.469 44.1377H20.4517C16.2435 44.1352 12.1448 42.829 8.74604 40.4076C5.3473 37.9861 2.82401 34.5742 1.53971 30.6636C0.587228 27.7581 0.351107 24.6742 0.850564 21.6628C1.35002 18.6515 2.57095 15.7977 4.414 13.3337C6.25705 10.8698 8.67016 8.8652 11.457 7.48316C14.2438 6.10111 17.3256 5.38062 20.4517 5.3803H52.3303C55.0568 5.37901 57.7569 5.90195 60.2763 6.91926C62.7957 7.93657 65.085 9.42832 67.0135 11.3093C68.9419 13.1902 70.4717 15.4235 71.5154 17.8816C72.5591 20.3396 73.0963 22.9743 73.0963 25.635V32.8348L73.0862 32.8526L73.0963 32.8625V32.8348L73.8461 31.7472V31.7353L89.3072 5.58991C89.3219 5.56452 89.3416 5.54225 89.3652 5.5244C89.3889 5.50654 89.4159 5.49345 89.4448 5.48591C89.4736 5.47836 89.5037 5.4765 89.5333 5.48044C89.563 5.48437 89.5915 5.49403 89.6172 5.50884C90.1506 5.81906 90.6593 6.16808 91.139 6.55291C93.6922 8.5449 95.4284 11.3647 96.0319 14.4999C96.6354 17.635 96.0662 20.8774 94.4278 23.6378L84.6567 40.1611C84.6285 40.2091 84.62 40.2657 84.6328 40.3196C84.6455 40.3735 84.6787 40.4207 84.7256 40.4518L99.6943 50.2321C99.7194 50.2489 99.7479 50.2603 99.7778 50.2658C99.8078 50.2713 99.8386 50.2707 99.8683 50.264C99.898 50.2573 99.9259 50.2447 99.9504 50.227C99.9748 50.2092 99.9952 50.1867 100.01 50.1609L123.141 11.0792L123.812 9.95012L123.875 9.85125C124.122 9.49695 124.393 9.15876 124.685 8.83881C125.668 7.75112 126.876 6.87997 128.231 6.28326C129.585 5.68654 131.054 5.37793 132.539 5.37793C134.025 5.37793 135.494 5.68654 136.848 6.28326C138.202 6.87997 139.411 7.75112 140.394 8.83881C140.694 9.15913 140.97 9.50013 141.22 9.85916C141.242 9.88768 141.26 9.91814 141.275 9.95012L141.946 11.0792L165.356 50.6414C165.381 50.6827 165.419 50.7148 165.464 50.733C165.509 50.7511 165.559 50.7542 165.606 50.7419C165.654 50.7295 165.695 50.7023 165.725 50.6645C165.755 50.6267 165.771 50.5804 165.772 50.5327V30.363C165.772 26.8003 167.22 23.383 169.797 20.8597C172.374 18.3364 175.872 16.9128 179.522 16.9007C179.536 16.9036 179.548 16.9111 179.557 16.922C179.566 16.9329 179.57 16.9464 179.569 16.9601Z" fill="white"/>
</svg>
