<svg width="46" height="46" viewBox="0 0 46 46" fill="none" xmlns="http://www.w3.org/2000/svg">
<path d="M44.0834 5.75023C42.2479 7.0449 40.2157 8.03511 38.065 8.68273C36.9107 7.35546 35.3766 6.41472 33.6702 5.98776C31.9638 5.56079 30.1674 5.66819 28.524 6.29543C26.8806 6.92268 25.4695 8.0395 24.4816 9.49485C23.4936 10.9502 22.9764 12.6739 23 14.4327V16.3494C19.6317 16.4367 16.2941 15.6897 13.2845 14.1748C10.2748 12.66 7.68647 10.4243 5.75003 7.6669C5.75003 7.6669 -1.91664 24.9169 15.3334 32.5836C11.386 35.263 6.68374 36.6065 1.91669 36.4169C19.1667 46.0002 40.25 36.4169 40.25 14.3752C40.2483 13.8413 40.1969 13.3088 40.0967 12.7844C42.0528 10.8553 43.4333 8.4196 44.0834 5.75023Z" fill="white"/>
</svg>
