<svg width="88" height="106" viewBox="0 0 88 106" fill="none" xmlns="http://www.w3.org/2000/svg">
<path d="M52.0627 45.816C52.0397 45.7931 51.9996 45.7529 51.9767 45.73C51.9996 45.7529 52.0226 45.7931 52.0398 45.816H52.0627ZM52.0627 45.816C52.0397 45.7931 51.9996 45.7529 51.9767 45.73C51.9996 45.7529 52.0226 45.7931 52.0398 45.816H52.0627ZM52.0627 45.816C52.0397 45.7931 51.9996 45.7529 51.9767 45.73C51.9996 45.7529 52.0226 45.7931 52.0398 45.816H52.0627Z" fill="white"/>
<path d="M67.5386 42.2411C67.5386 39.0308 66.2864 36.0311 64.0039 33.7486C63.9584 33.703 63.9185 33.6632 63.873 33.6177C62.6662 32.4337 61.1579 31.4832 59.5186 30.9026C58.2038 30.4301 56.8434 30.1911 55.4431 30.1911H50.6163L50.5935 13.0752C50.5935 9.84212 49.3413 6.80259 47.0588 4.52009C44.7763 2.23759 41.7367 0.985352 38.5037 0.985352H21.5642C18.3767 0.985352 15.377 2.21483 13.0945 4.45748C13.049 4.48025 13.0319 4.52009 12.9864 4.56563C11.0226 6.52937 9.79887 9.11355 9.51427 11.914L9.46872 12.432V12.6027C9.46872 12.6881 9.46874 12.7963 9.44597 12.8817V13.0752C9.44597 14.6689 9.77042 16.2627 10.3738 17.7313C10.5275 18.0785 10.6754 18.42 10.8917 18.79C11.2788 19.5242 11.7341 20.1902 12.2066 20.7537C12.4627 21.0782 12.7473 21.3571 12.9636 21.5734C13.1572 21.7669 13.3279 21.9604 13.4588 22.0686L13.8459 22.393L14.0166 22.5239C14.1874 22.6719 14.3411 22.7801 14.5346 22.9338C14.7737 23.0817 15.0071 23.2354 15.2006 23.3663C15.3315 23.4517 15.4397 23.52 15.5649 23.5826L15.6958 23.6453C15.7186 23.668 15.7584 23.6908 15.7812 23.7079C15.9292 23.7932 16.1056 23.8786 16.3219 23.9868C16.709 24.1575 17.096 24.334 17.4831 24.4592C18.7752 24.9316 20.1583 25.1707 21.5586 25.1707H26.3854L26.4082 42.2866C26.3854 45.5197 27.6604 48.5592 29.9429 50.8417C32.2254 53.1242 35.2649 54.3992 38.498 54.3992H55.4602C58.6705 54.3992 61.71 53.1299 63.9982 50.8417C65.979 48.8779 67.2085 46.271 67.4874 43.425L67.5386 42.2411ZM26.3911 17.9248H21.5642C18.889 17.9248 16.7147 15.7504 16.7147 13.0752V12.9898C16.7147 12.8589 16.7147 12.7337 16.7374 12.5572C16.7602 12.3409 16.8001 12.1246 16.8228 11.9766C16.8684 11.7603 16.931 11.544 16.9936 11.3505C17.0164 11.3277 17.0391 11.2424 17.0391 11.2196C17.0846 11.1342 17.1245 11.0488 17.17 10.9634C17.1928 10.9407 17.1928 10.9008 17.2155 10.8781C17.2155 10.8553 17.2383 10.8325 17.2383 10.8325C17.4774 10.3373 17.7791 9.9275 18.1661 9.54045C18.8776 8.82894 19.7826 8.35651 20.7731 8.20282C21.0292 8.15729 21.2911 8.14021 21.5472 8.14021C21.7863 8.14021 22.0196 8.16298 22.2587 8.20282C22.2815 8.20282 22.3441 8.20282 22.3896 8.22559C22.4351 8.22559 22.4522 8.24836 22.4977 8.24836C22.714 8.2939 22.9303 8.33374 23.2093 8.44189L23.2946 8.46466C23.3573 8.48742 23.4256 8.52727 23.5109 8.55004C23.5736 8.59557 23.6646 8.61265 23.7272 8.65818C23.7727 8.65818 23.7898 8.68095 23.8354 8.70372C23.8809 8.72649 23.898 8.74926 23.9435 8.7891C24.0517 8.83464 24.1371 8.89725 24.2452 8.95986C24.3989 9.04524 24.5241 9.15339 24.7176 9.32415C24.8258 9.40953 24.9111 9.49491 24.9738 9.56321C25.4917 10.0812 25.856 10.639 26.0951 11.2651C26.1179 11.3277 26.1406 11.3733 26.1577 11.4359C26.1805 11.4814 26.1805 11.544 26.2033 11.5896C26.2033 11.6123 26.226 11.6522 26.226 11.6977C26.2715 11.8059 26.2886 11.9368 26.3342 12.1531L26.3569 12.3238C26.3569 12.3865 26.3797 12.4718 26.4025 12.5629V17.9248H26.3911ZM44.3665 47.1305H38.5037C38.3728 47.1305 38.2248 47.1305 38.0313 47.1077C37.7751 47.085 37.5133 47.0451 37.2116 46.954C37.166 46.9313 37.1262 46.9313 37.0579 46.9085C36.9953 46.9085 36.927 46.863 36.8644 46.8459C36.8188 46.8231 36.779 46.8004 36.7335 46.8004C36.6481 46.7548 36.5627 46.7377 36.4318 46.6694C36.1927 46.5385 35.9138 46.3905 35.7203 46.2596C35.6577 46.197 35.5666 46.1515 35.504 46.0889C35.4414 46.0262 35.3731 45.9807 35.3332 45.9352C35.2706 45.8726 35.2023 45.827 35.1397 45.7644C35.117 45.7189 35.0771 45.7018 35.0543 45.6563C34.9689 45.5709 34.8836 45.5083 34.7527 45.3546C34.6901 45.2692 34.6217 45.1838 34.5364 45.0529C34.4738 44.9675 34.4054 44.8822 34.3656 44.7968C34.3428 44.7512 34.3201 44.7114 34.303 44.6659C34.2404 44.5577 34.1721 44.4496 34.1095 44.3414C33.8078 43.6925 33.6541 43.0038 33.6541 42.2923V13.0126C33.6541 12.6483 33.6541 12.3011 33.6086 11.9368L33.5858 11.7205L33.563 11.5042C33.563 11.4587 33.5403 11.396 33.5403 11.3505L33.5175 11.2424C33.5175 11.157 33.4947 11.0488 33.4947 11.0033C33.4093 10.4455 33.2556 9.9275 33.1304 9.44937C33.0849 9.31846 33.0451 9.21031 32.9995 9.08508C32.9767 8.9997 32.9369 8.89156 32.8914 8.76064C32.8686 8.7151 32.8458 8.67526 32.8288 8.61265C32.806 8.55004 32.7661 8.48173 32.7661 8.48173C32.7434 8.39635 32.7035 8.31097 32.6808 8.22559H38.498C39.0786 8.22559 39.6592 8.33374 40.1601 8.52727C40.3536 8.58988 40.5243 8.65818 40.7008 8.74356C40.7236 8.76633 40.7463 8.76633 40.7634 8.7891C40.8943 8.85171 41.0025 8.92002 41.1106 8.98263C41.2586 9.09078 41.4123 9.19893 41.566 9.32984C41.6969 9.43799 41.8222 9.54614 41.9531 9.67705C42.1694 9.89335 42.3401 10.1096 42.5109 10.343C42.619 10.4967 42.7272 10.6675 42.8581 10.9236C43.2053 11.6123 43.3533 12.3238 43.3533 13.0809V42.3947C43.3761 44.0283 43.7233 45.6449 44.3665 47.1305ZM60.2984 42.372C60.2984 42.5029 60.2984 42.6281 60.2756 42.8273C60.2529 42.9753 60.2301 43.129 60.213 43.2599C60.1504 43.5616 60.0821 43.8177 60.0195 44.017C59.8886 44.3414 59.7804 44.5748 59.6324 44.8366C59.4389 45.1838 59.177 45.5253 58.8981 45.8043C57.9703 46.7321 56.7409 47.2273 55.4488 47.2273C55.1699 47.2273 54.8454 47.2045 54.4811 47.1419C54.2648 47.0963 54.0713 47.0337 53.855 46.9711C53.5078 46.8402 53.2062 46.6922 52.95 46.5385C52.8419 46.4759 52.7337 46.3848 52.6028 46.2995C52.4491 46.1913 52.3239 46.0832 52.1076 45.8669C52.0848 45.8669 52.0848 45.8669 52.062 45.8213H52.0393C52.0165 45.7986 51.9938 45.7587 51.9767 45.736C51.8913 45.6506 51.823 45.5652 51.7376 45.4969L51.7148 45.4514C51.6522 45.366 51.6067 45.2977 51.5213 45.1497L51.4359 45.0415C51.3904 44.9789 51.3278 44.8878 51.2822 44.8252L51.2367 44.7626C51.2139 44.6545 51.1741 44.5691 51.1286 44.4837C51.0831 44.4382 51.066 44.3756 51.0432 44.33C50.9977 44.2446 50.9578 44.1365 50.935 44.0511C50.9123 44.0056 50.8895 43.943 50.8724 43.9031C50.8724 43.8576 50.8497 43.8177 50.8497 43.7722C50.8269 43.7494 50.8269 43.7096 50.8041 43.6868C50.8041 43.6014 50.7814 43.5161 50.7586 43.4307C50.7358 43.3453 50.7131 43.2372 50.696 43.1745L50.6732 43.0436C50.6732 42.981 50.6732 42.9127 50.6504 42.8729C50.6049 42.594 50.5878 42.3321 50.5878 42.1158V37.437H55.4602C56.7295 37.437 57.959 37.955 58.864 38.86C59.7918 39.7878 60.287 40.9945 60.287 42.2866V42.372H60.2984Z" fill="white"/>
<path d="M1.18687 80.3897C0.765665 80.0197 0.555069 79.5017 0.555069 78.8244C0.555069 78.2723 0.657507 77.464 0.856728 76.4167C1.06164 75.3693 1.34057 74.0089 1.69917 72.3412C2.00085 70.9751 2.23421 69.8595 2.39928 68.9886C2.72941 67.3379 2.89448 66.0572 2.89448 65.1408C2.89448 64.9017 2.85463 64.5431 2.78063 64.0593C3.06523 63.9113 3.40108 63.7804 3.79383 63.6779C4.18657 63.5755 4.55654 63.5186 4.92083 63.5186C5.49003 63.5186 5.96817 63.6665 6.34953 63.9568C6.7309 64.2471 6.92443 64.7139 6.92443 65.34C6.92443 65.6417 6.85042 66.2393 6.69674 67.1387C6.54875 68.038 6.36092 69 6.13323 70.0188C5.89417 71.1288 5.66081 72.2843 5.43313 73.4853C5.08592 75.136 4.84684 76.3085 4.71023 76.9972C4.57362 77.686 4.50533 78.1299 4.50533 78.3235C4.50533 78.6252 4.58501 78.8756 4.75008 79.0805C4.91515 79.2854 5.15422 79.3993 5.47298 79.4277C5.30791 79.9229 4.98345 80.2986 4.49393 80.5547C4.01011 80.8109 3.46368 80.9361 2.86033 80.9361C2.17159 80.9418 1.60808 80.7597 1.18687 80.3897Z" fill="white"/>
<path d="M7.7042 80.3887C7.2773 80.0188 7.061 79.5008 7.061 78.8234C7.061 78.1632 7.27732 76.7857 7.7156 74.6853C7.73268 74.5829 7.74404 74.4918 7.76111 74.4178C7.77819 74.3438 7.78958 74.2755 7.80666 74.2129L8.81982 69.0161L12.8498 68.612L11.1365 77.389C11.0625 77.7932 11.0227 78.1119 11.0227 78.3339C11.0227 78.6356 11.1023 78.886 11.2674 79.091C11.4325 79.2959 11.6715 79.4097 11.9903 79.4382C11.8423 79.9334 11.5179 80.309 11.0227 80.5652C10.5275 80.8213 9.98101 80.9465 9.37766 80.9465C8.68892 80.9409 8.13111 80.7587 7.7042 80.3887ZM9.85577 66.7393C9.45163 66.4547 9.24672 66.0392 9.24672 65.5041C9.24672 64.9463 9.45733 64.5194 9.88992 64.212C10.3168 63.9047 10.869 63.751 11.5463 63.751C12.2066 63.751 12.7359 63.899 13.1344 64.2006C13.5328 64.5023 13.732 64.9178 13.732 65.4586C13.732 66.0164 13.5214 66.4376 13.1002 66.7279C12.679 67.0182 12.1326 67.1662 11.4552 67.1662C10.7893 67.1662 10.2599 67.0239 9.85577 66.7393Z" fill="white"/>
<path d="M27.1823 80.3885C26.7611 80.0186 26.5505 79.4835 26.5505 78.7777C26.5505 78.402 26.6074 77.9353 26.7212 77.3832C26.8351 76.831 27.0001 76.0683 27.2278 75.1121C27.4498 74.1046 27.6206 73.3475 27.723 72.8296C27.8255 72.3116 27.8824 71.8733 27.8824 71.5147C27.8824 71.1561 27.8084 70.8601 27.6547 70.6381C27.5067 70.4105 27.262 70.3023 26.9375 70.3023C25.93 70.3023 25.1901 71.4635 24.7063 73.7915L23.4256 80.4967L19.3956 80.9008L20.6308 75.0267C21.0235 73.1825 21.217 72.0042 21.217 71.4919C21.217 70.6951 20.8926 70.2966 20.2494 70.2966C19.6176 70.2966 19.1395 70.6381 18.8093 71.3212C18.4792 72.0042 18.2174 72.8239 18.0238 73.7858L16.7203 80.491L12.7132 80.8951L15.0298 69.0102L18.3141 68.6061L17.9783 70.769C18.7296 69.3005 20.0388 68.5605 21.9172 68.5605C22.697 68.5605 23.3345 68.7085 23.8297 68.9988C24.3249 69.2891 24.6721 69.7673 24.8656 70.4275C25.6283 69.181 26.892 68.5605 28.6508 68.5605C29.6583 68.5605 30.4324 68.7768 30.9789 69.2151C31.5253 69.6477 31.7985 70.3251 31.7985 71.2415C31.7985 71.6912 31.7359 72.2205 31.6164 72.8296C31.4968 73.4386 31.3204 74.2184 31.0984 75.1804C30.7056 76.6831 30.5121 77.7019 30.5121 78.2427C30.5121 78.9655 30.8309 79.3583 31.4798 79.438C31.3318 79.9332 31.0073 80.3089 30.5121 80.565C30.0169 80.8211 29.4705 80.9464 28.8671 80.9464C28.167 80.9407 27.6035 80.7585 27.1823 80.3885Z" fill="white"/>
<path d="M33.0678 80.3887C32.6409 80.0188 32.4246 79.5008 32.4246 78.8234C32.4246 78.1632 32.6409 76.7857 33.0792 74.6853C33.0963 74.5829 33.1077 74.4918 33.1247 74.4178C33.1418 74.3438 33.1532 74.2755 33.1703 74.2129L34.1835 69.0161L38.2134 68.612L36.5001 77.389C36.4261 77.7932 36.3863 78.1119 36.3863 78.3339C36.3863 78.6356 36.466 78.886 36.631 79.091C36.7961 79.2959 37.0352 79.4097 37.3539 79.4382C37.2059 79.9334 36.8815 80.309 36.3863 80.5652C35.8911 80.8213 35.3446 80.9465 34.7413 80.9465C34.0582 80.9409 33.4947 80.7587 33.0678 80.3887ZM35.2194 66.7393C34.8153 66.4547 34.6104 66.0392 34.6104 65.5041C34.6104 64.9463 34.821 64.5194 35.2536 64.212C35.6805 63.9047 36.2326 63.751 36.9099 63.751C37.5702 63.751 38.0996 63.899 38.498 64.2006C38.8964 64.5023 39.0957 64.9178 39.0957 65.4586C39.0957 66.0164 38.8851 66.4376 38.4639 66.7279C38.0427 67.0182 37.4962 67.1662 36.8189 67.1662C36.1586 67.1662 35.6235 67.0239 35.2194 66.7393Z" fill="white"/>
<path d="M40.0121 80.3881C39.5624 80.0181 39.3404 79.4945 39.3404 78.8C39.3404 78.0658 39.6421 76.25 40.2398 73.3528L40.8716 70.023H39.477L39.5681 69.3456C41.3098 68.7935 42.9662 67.8771 44.5429 66.6021H45.5333L45.0154 69.0098H46.7685L46.5636 70.023H44.8104L43.4614 77.1152C43.3589 77.5649 43.3021 77.9405 43.3021 78.2422C43.3021 79.0049 43.5923 79.392 44.1786 79.392C44.3437 79.392 44.5145 79.3692 44.6966 79.3237C44.4234 79.9555 44.0363 80.3824 43.524 80.6044C43.0117 80.8321 42.4141 80.9402 41.7254 80.9402C41.031 80.9402 40.4618 80.7581 40.0121 80.3881Z" fill="white"/>
<path d="M46.5863 80.3887C46.1651 80.0187 45.9545 79.5007 45.9545 78.8234C45.9545 78.2713 46.057 77.463 46.2562 76.4157C46.4611 75.3684 46.74 74.008 47.0986 72.3402C47.4003 70.9741 47.6337 69.8585 47.7987 68.9876C48.1289 67.3369 48.2939 66.0562 48.2939 65.1398C48.2939 64.9007 48.2541 64.5421 48.1801 64.0583C48.4647 63.9103 48.8006 63.7794 49.1933 63.677C49.5861 63.5745 49.956 63.5176 50.3203 63.5176C50.8895 63.5176 51.3676 63.6656 51.749 63.9559C52.1304 64.2462 52.3239 64.7129 52.3239 65.339C52.3239 65.6407 52.2499 66.2384 52.0962 67.1377C51.9482 68.037 51.7604 68.999 51.5327 70.0179C51.2936 71.1278 51.0603 72.2833 50.8326 73.4843C50.4854 75.135 50.2463 76.3075 50.1097 76.9963C49.9731 77.685 49.9048 78.129 49.9048 78.3225C49.9048 78.6242 49.9845 78.8746 50.1495 79.0795C50.3146 79.2845 50.5537 79.3983 50.8724 79.4268C50.7074 79.922 50.3829 80.2976 49.8934 80.5538C49.4096 80.8099 48.8632 80.9351 48.2598 80.9351C47.5711 80.9408 47.0075 80.7587 46.5863 80.3887Z" fill="white"/>
<path d="M53.5647 79.7854C52.7394 79.0112 52.3296 77.8558 52.3296 76.3075C52.3296 74.9585 52.5915 73.6949 53.1151 72.5167C53.6388 71.3384 54.4356 70.3878 55.5 69.6593C56.5644 68.9307 57.8793 68.5664 59.4389 68.5664C61.8694 68.5664 63.0875 69.4885 63.0875 71.3327C63.0875 72.4882 62.598 73.3989 61.6133 74.0649C60.6285 74.7309 59.2169 75.1065 57.3727 75.1805C57.1166 75.1976 56.8946 75.1976 56.7067 75.1919C56.5189 75.1862 56.3595 75.1805 56.2229 75.1805C56.1774 75.5391 56.1546 75.8863 56.1546 76.2165C56.1546 76.9337 56.3026 77.4744 56.5929 77.8273C56.8832 78.1802 57.367 78.3567 58.0444 78.3567C58.6591 78.3567 59.2511 78.2201 59.8089 77.9525C60.3724 77.685 60.7936 77.315 61.0782 76.8483C61.4539 77.0304 61.6417 77.372 61.6417 77.8842C61.6417 78.4705 61.4311 78.9999 61.0099 79.4723C60.5887 79.9447 60.0195 80.309 59.2966 80.5652C58.5738 80.8213 57.7882 80.9465 56.9344 80.9465C55.5114 80.9408 54.3901 80.5538 53.5647 79.7854ZM58.9096 73.3135C59.5641 72.7273 59.8829 71.9475 59.8658 70.9741C59.8374 70.1488 59.5357 69.7333 58.9665 69.7333C58.3688 69.7333 57.8395 70.1203 57.3784 70.8944C56.9174 71.6686 56.5758 72.7671 56.3538 74.1901C57.4012 74.1901 58.255 73.8998 58.9096 73.3135Z" fill="white"/>
<path d="M64.7837 80.3772C63.8616 79.973 63.4062 79.3469 63.4233 78.5102C63.4404 77.8954 63.6623 77.423 64.1006 77.0929C64.5389 76.7627 65.0968 76.5977 65.7912 76.5977C66.423 76.5977 66.9296 76.7172 67.3223 76.9563C67.1857 77.4344 67.1174 77.941 67.1174 78.4646C67.1174 78.8574 67.2484 79.1648 67.4988 79.3981C67.7549 79.6315 68.1078 79.7453 68.5575 79.7453C69.0243 79.7453 69.4056 79.6315 69.7072 79.3981C70.0089 79.1648 70.1569 78.8631 70.1569 78.4874C70.174 78.0662 69.9919 77.6848 69.6162 77.3376C69.2405 76.9904 68.6656 76.5578 67.8801 76.0342L67.1345 75.539C66.3832 75.0267 65.7968 74.503 65.3699 73.9623C64.943 73.4215 64.7381 72.7897 64.7495 72.0725C64.7666 71.3212 65.0398 70.6837 65.5805 70.1486C66.1213 69.6136 66.8157 69.2208 67.6752 68.9533C68.529 68.6915 69.4284 68.5605 70.3789 68.5605C71.5059 68.5605 72.4793 68.7655 73.3046 69.1696C74.13 69.5737 74.5398 70.1885 74.5398 71.0138C74.5227 71.6285 74.3178 72.0953 73.9193 72.4197C73.5209 72.7442 73.0086 72.9036 72.3768 72.9036C71.745 72.9036 71.2213 72.7783 70.8001 72.5222C70.9823 72.0896 71.0733 71.6513 71.0733 71.2187C71.0733 70.7861 70.9538 70.4332 70.7147 70.1714C70.4757 69.9096 70.1455 69.7729 69.7243 69.7559C69.3316 69.7559 69.0014 69.864 68.7339 70.0803C68.4664 70.2966 68.3241 70.5926 68.307 70.9683C68.307 71.435 68.5233 71.8676 68.9616 72.2717C69.3942 72.6759 70.026 73.1369 70.8513 73.6435C71.7962 74.2298 72.5077 74.7819 72.9801 75.2999C73.4526 75.8179 73.686 76.4667 73.686 77.2466C73.6576 78.3565 73.1452 79.2558 72.1434 79.9389C71.1473 80.6219 69.8041 80.9691 68.1249 80.9862C66.8214 80.9862 65.7058 80.787 64.7837 80.3772Z" fill="white"/>
<path d="M75.4505 80.3772C74.5284 79.973 74.073 79.3469 74.0901 78.5102C74.1072 77.8954 74.3292 77.423 74.7674 77.0929C75.2057 76.7627 75.7636 76.5977 76.4523 76.5977C77.0841 76.5977 77.5907 76.7172 77.9834 76.9563C77.8468 77.4344 77.7785 77.941 77.7785 78.4646C77.7785 78.8574 77.9038 79.1648 78.1599 79.3981C78.4161 79.6315 78.769 79.7453 79.2186 79.7453C79.6854 79.7453 80.0668 79.6315 80.3684 79.3981C80.6701 79.1648 80.8181 78.8631 80.8181 78.4874C80.8351 78.0662 80.653 77.6848 80.2773 77.3376C79.9017 76.9904 79.3267 76.5578 78.5412 76.0342L77.7956 75.539C77.0443 75.0267 76.458 74.503 76.0311 73.9623C75.6042 73.4215 75.3993 72.7897 75.4106 72.0725C75.4277 71.3212 75.7067 70.6837 76.2417 70.1486C76.7825 69.6136 77.4825 69.2208 78.3363 68.9533C79.1901 68.6915 80.0895 68.5605 81.04 68.5605C82.1671 68.5605 83.1404 68.7655 83.9658 69.1696C84.7911 69.5737 85.2009 70.1885 85.2009 71.0138C85.1839 71.6285 84.9789 72.0953 84.5805 72.4197C84.182 72.7442 83.6698 72.9036 83.038 72.9036C82.4061 72.9036 81.8825 72.7783 81.4613 72.5222C81.6434 72.0896 81.7288 71.6513 81.7288 71.2187C81.7288 70.7861 81.6093 70.4332 81.3702 70.1714C81.1312 69.9096 80.801 69.7729 80.3798 69.7559C79.987 69.7559 79.6569 69.864 79.3894 70.0803C79.1161 70.2966 78.9738 70.5926 78.9625 70.9683C78.9625 71.435 79.1788 71.8676 79.617 72.2717C80.0496 72.6759 80.6815 73.1369 81.5068 73.6435C82.4517 74.2298 83.1632 74.7819 83.6356 75.2999C84.1081 75.8179 84.3414 76.4667 84.3414 77.2466C84.313 78.3565 83.795 79.2558 82.7989 79.9389C81.8028 80.6219 80.4595 80.9691 78.7803 80.9862C77.4882 80.9862 76.3726 80.787 75.4505 80.3772Z" fill="white"/>
<path d="M1.18686 100.481C0.76565 100.111 0.555054 99.5935 0.555054 98.9162C0.555054 98.364 0.657492 97.5558 0.856712 96.5085C1.06162 95.4611 1.34056 94.1007 1.69915 92.433C2.00083 91.0669 2.23419 89.9513 2.39926 89.0804C2.7294 87.4297 2.89446 86.149 2.89446 85.2326C2.89446 84.9935 2.85461 84.6349 2.78062 84.1511C3.06522 84.0031 3.40106 83.8722 3.79381 83.7697C4.18656 83.6673 4.55653 83.6104 4.92082 83.6104C5.49002 83.6104 5.96815 83.7583 6.34952 84.0486C6.73088 84.3389 6.92442 84.8057 6.92442 85.4318C6.92442 85.7335 6.85041 86.3311 6.69672 87.2305C6.54873 88.1298 6.3609 89.0918 6.13322 90.1106C5.89416 91.2206 5.66079 92.376 5.43311 93.5771C5.0859 95.2277 4.84682 96.4003 4.71022 97.089C4.57361 97.7778 4.50531 98.2217 4.50531 98.4153C4.50531 98.717 4.585 98.9674 4.75006 99.1723C4.91513 99.3772 5.15421 99.4911 5.47296 99.5195C5.30789 100.015 4.98343 100.39 4.49392 100.647C4.0101 100.903 3.46367 101.028 2.86031 101.028C2.17158 101.034 1.60807 100.851 1.18686 100.481Z" fill="white"/>
<path d="M8.16526 99.8728C7.33992 99.0986 6.92441 97.9432 6.92441 96.3949C6.92441 95.0459 7.18624 93.7823 7.70991 92.6041C8.23357 91.4258 9.03046 90.4753 10.0949 89.7467C11.1593 89.0181 12.4741 88.6538 14.0337 88.6538C16.4642 88.6538 17.6823 89.5759 17.6823 91.4201C17.6823 92.5756 17.1928 93.4863 16.2081 94.1523C15.2234 94.8183 13.8117 95.1939 11.9675 95.2679C11.7114 95.285 11.4894 95.285 11.3016 95.2793C11.1137 95.2736 10.9543 95.2679 10.8177 95.2679C10.7722 95.6265 10.7494 95.9737 10.7494 96.3039C10.7494 97.0211 10.8974 97.5618 11.1877 97.9147C11.4837 98.2676 11.9675 98.4441 12.6392 98.4441C13.2539 98.4441 13.8459 98.3075 14.4094 98.0399C14.9729 97.7724 15.3941 97.4024 15.6787 96.9357C16.0544 97.1178 16.2422 97.4593 16.2422 97.9716C16.2422 98.5579 16.0316 99.0873 15.6104 99.5597C15.1892 100.032 14.62 100.396 13.8971 100.653C13.1742 100.909 12.3887 101.034 11.5349 101.034C10.1176 101.034 8.9906 100.647 8.16526 99.8728ZM13.5101 93.4066C14.1647 92.8204 14.4834 92.0406 14.4663 91.0672C14.4379 90.2419 14.1362 89.8264 13.567 89.8264C12.9693 89.8264 12.44 90.2134 11.9789 90.9875C11.5236 91.7616 11.182 92.8602 10.9543 94.2832C12.0074 94.2832 12.8612 93.9929 13.5101 93.4066Z" fill="white"/>
<path d="M19.6119 99.8728C19.0199 99.0986 18.7239 98.0229 18.7239 96.6454C18.7239 95.1598 19.0199 93.8108 19.6119 92.5927C20.2039 91.3746 21.0121 90.4183 22.0424 89.7125C23.067 89.0067 24.2053 88.6538 25.4519 88.6538C26.2488 88.6538 27.0513 88.7961 27.8596 89.0807L31.0756 88.6993L29.4136 97.4764C29.3396 97.8806 29.2997 98.1993 29.2997 98.4213C29.2997 98.723 29.3794 98.9734 29.5331 99.1783C29.6924 99.3832 29.9258 99.4971 30.2446 99.5255C30.0966 100.004 29.7721 100.379 29.2769 100.641C28.7817 100.903 28.2581 101.034 27.7003 101.034C27.188 101.034 26.7497 100.926 26.374 100.709C25.9983 100.493 25.7536 100.174 25.634 99.7532C24.7802 100.607 23.6703 101.034 22.3042 101.034C21.0975 101.034 20.2039 100.647 19.6119 99.8728ZM24.9908 98.7287C25.3153 98.1367 25.5487 97.4252 25.7024 96.5999L26.8066 90.4753C26.3854 90.1622 25.9414 90.0028 25.4804 90.0028C24.8087 90.0028 24.2509 90.4297 23.8183 91.2721C23.38 92.1202 23.0613 93.1448 22.862 94.3458C22.6571 95.5468 22.5603 96.6852 22.5603 97.7667C22.5603 98.9962 22.919 99.6109 23.6418 99.6109C24.211 99.6166 24.6664 99.3206 24.9908 98.7287Z" fill="white"/>
<path d="M36.927 88.6993L36.5912 90.8623C36.9384 90.1451 37.3994 89.593 37.9743 89.2173C38.5549 88.8416 39.2209 88.6538 39.9893 88.6538C40.8431 88.6538 41.492 88.8758 41.936 89.3198C42.38 89.7637 42.6019 90.3842 42.6019 91.1754C42.6019 92.0747 42.3344 92.8204 41.8051 93.4123C41.27 94.0043 40.5926 94.3003 39.7673 94.3003C39.4998 94.3003 39.2494 94.2661 39.0274 94.1978C38.7997 94.1295 38.6289 94.0214 38.5094 93.8734C38.7484 93.5603 38.9533 93.1562 39.1184 92.6667C39.2835 92.1772 39.3632 91.7332 39.3632 91.3291C39.3632 90.6972 39.1241 90.3842 38.6403 90.3842C37.6954 90.3842 37.0067 91.608 36.5684 94.0555L35.4869 100.584L31.3431 100.988L33.6199 89.1035L36.927 88.6993Z" fill="white"/>
<path d="M49.6031 100.482C49.1819 100.112 48.9713 99.5768 48.9713 98.871C48.9713 98.4953 49.0283 98.0286 49.1421 97.4764C49.2559 96.9243 49.4209 96.1616 49.6486 95.2053C49.8706 94.1978 50.0414 93.4408 50.1438 92.9228C50.252 92.4048 50.3032 91.9666 50.3032 91.608C50.3032 90.7997 49.9844 90.3899 49.3583 90.3899C48.3224 90.3899 47.5653 91.551 47.0872 93.8791L45.7838 100.584L41.7766 100.988L44.0932 89.1035L47.3775 88.6993L47.0417 90.8623C47.4458 90.111 47.998 89.5588 48.6981 89.1945C49.3982 88.836 50.1951 88.6538 51.0944 88.6538C53.1834 88.6538 54.225 89.5418 54.225 91.312C54.225 91.7787 54.1624 92.3138 54.0429 92.9228C53.9234 93.5319 53.7469 94.3117 53.5249 95.2736C53.1322 96.8048 52.9386 97.8236 52.9386 98.3359C52.9386 99.0588 53.2631 99.4516 53.9063 99.5312C53.7583 100.026 53.4338 100.402 52.9386 100.658C52.4434 100.914 51.897 101.04 51.2993 101.04C50.5821 101.034 50.0186 100.852 49.6031 100.482Z" fill="white"/>
<path d="M55.5114 100.481C55.0845 100.112 54.8682 99.5935 54.8682 98.9162C54.8682 98.2559 55.0846 96.8785 55.5228 94.7781C55.5399 94.6756 55.5513 94.5846 55.5683 94.5106C55.5854 94.4366 55.5969 94.3683 55.6139 94.3057L56.6271 89.1089L60.657 88.7047L58.9437 97.4818C58.8697 97.8859 58.8299 98.2047 58.8299 98.4267C58.8299 98.7284 58.9096 98.9788 59.0746 99.1837C59.2397 99.3886 59.4788 99.5025 59.7975 99.5309C59.6496 100.026 59.3251 100.402 58.8299 100.658C58.3347 100.914 57.7882 101.039 57.1849 101.039C56.4961 101.034 55.9383 100.851 55.5114 100.481ZM57.6573 86.8321C57.2532 86.5475 57.0483 86.1319 57.0483 85.5969C57.0483 85.0391 57.2589 84.6122 57.6915 84.3048C58.1184 83.9974 58.6705 83.8438 59.3479 83.8438C60.0081 83.8438 60.5375 83.9917 60.9359 84.2934C61.3344 84.5951 61.5336 85.0106 61.5336 85.5514C61.5336 86.1092 61.323 86.5304 60.9018 86.8207C60.4806 87.111 59.9341 87.259 59.2568 87.259C58.5965 87.259 58.0615 87.1167 57.6573 86.8321Z" fill="white"/>
<path d="M68.3526 100.482C67.9314 100.112 67.7208 99.5768 67.7208 98.871C67.7208 98.4953 67.7777 98.0286 67.8916 97.4764C68.0054 96.9243 68.1705 96.1616 68.3982 95.2053C68.6201 94.1978 68.7909 93.4408 68.8934 92.9228C69.0015 92.4048 69.0527 91.9666 69.0527 91.608C69.0527 90.7997 68.734 90.3899 68.1079 90.3899C67.0719 90.3899 66.3149 91.551 65.8367 93.8791L64.5333 100.584L60.5261 100.988L62.8427 89.1035L66.127 88.6993L65.7912 90.8623C66.1954 90.111 66.7474 89.5588 67.4476 89.1945C68.1477 88.836 68.9446 88.6538 69.8439 88.6538C71.9329 88.6538 72.9746 89.5418 72.9746 91.312C72.9746 91.7787 72.9119 92.3138 72.7924 92.9228C72.6728 93.5319 72.4964 94.3117 72.2744 95.2736C71.8816 96.8048 71.6882 97.8236 71.6882 98.3359C71.6882 99.0588 72.0126 99.4516 72.6558 99.5312C72.5078 100.026 72.1834 100.402 71.6882 100.658C71.1929 100.914 70.6465 101.04 70.0488 101.04C69.3317 101.034 68.7682 100.852 68.3526 100.482Z" fill="white"/>
<path d="M73.7828 104.614C72.8891 104.301 72.4509 103.726 72.4679 102.901C72.4679 102.331 72.6671 101.887 73.0656 101.574C73.464 101.261 73.9934 101.102 74.6536 101.102C75.5074 101.102 76.1734 101.381 76.6572 101.933C76.3726 102.144 76.2303 102.422 76.2303 102.764C76.2303 103.424 76.8508 103.754 78.0973 103.754C78.8202 103.754 79.435 103.584 79.9415 103.236C80.4538 102.889 80.7157 102.388 80.727 101.728C80.727 101.426 80.6473 101.21 80.4823 101.073C80.3172 100.937 80.0611 100.851 79.7196 100.806C79.3723 100.76 78.8714 100.738 78.2112 100.738C76.9077 100.738 75.9685 100.595 75.3993 100.311C74.8301 100.026 74.5455 99.5537 74.5455 98.8934C74.5455 98.3697 74.7049 97.8802 75.0179 97.4306C75.331 96.9809 75.7465 96.5825 76.2531 96.2352C75.6668 96.0076 75.2115 95.6547 74.8927 95.1651C74.5683 94.6756 74.4089 94.0837 74.4089 93.3779C74.4089 92.359 74.6764 91.4938 75.2115 90.788C75.7408 90.0822 76.458 89.5471 77.3517 89.1885C78.2453 88.8299 79.2357 88.6478 80.3343 88.6478C80.7555 88.6478 81.1027 88.6706 81.3816 88.7161C81.6605 88.7616 81.9793 88.8242 82.3379 88.8982C82.7306 89.0007 83.0665 89.0576 83.3511 89.0576C83.8918 89.0576 84.2959 88.9096 84.5635 88.6079C84.831 88.3063 84.9733 87.9249 84.9904 87.4582C84.9904 87.0825 84.8708 86.7751 84.6318 86.5361C85.127 86.0693 85.6563 85.8359 86.2312 85.8359C86.6353 85.8359 86.9598 85.9441 87.1989 86.1604C87.4379 86.3767 87.5575 86.6897 87.5575 87.0939C87.5575 87.5606 87.4208 88.016 87.1419 88.4656C86.863 88.9153 86.476 89.2967 85.9865 89.6154C85.4913 89.9285 84.9277 90.1277 84.2959 90.2017C84.5976 90.6685 84.7456 91.2092 84.7456 91.8239C84.7456 92.8428 84.4894 93.7194 83.9715 94.4479C83.4535 95.1765 82.7477 95.7287 81.8541 96.1157C80.9604 96.4971 79.9586 96.6906 78.8487 96.6906C78.6665 96.6906 78.325 96.6735 77.8127 96.6451C77.5737 96.8272 77.4541 97.0435 77.4541 97.2997C77.4541 97.5216 77.5793 97.6639 77.8355 97.7152C78.0916 97.7664 78.5584 97.7949 79.23 97.7949H80.6474C83.2258 97.7949 84.5065 98.6657 84.4724 100.407C84.4553 101.398 84.0967 102.246 83.3909 102.952C82.6851 103.658 81.7857 104.193 80.7043 104.551C79.6171 104.91 78.5015 105.092 77.363 105.092C75.8661 105.086 74.6764 104.927 73.7828 104.614ZM80.6929 94.3284C81.0458 93.5657 81.2279 92.6777 81.245 91.6703C81.2165 90.4408 80.801 89.826 80.0042 89.826C79.3325 89.826 78.7974 90.2472 78.4161 91.084C78.0347 91.9207 77.8412 92.8485 77.8412 93.8503C77.8412 94.9318 78.2681 95.4725 79.1219 95.4725C79.822 95.4782 80.34 95.0911 80.6929 94.3284Z" fill="white"/>
</svg>
