<svg width="116" height="126" viewBox="0 0 116 126" fill="none" xmlns="http://www.w3.org/2000/svg">
<path d="M5.20521 21.5259C5.20521 21.5259 41.8048 -24.3622 81.1374 34.6343C81.1374 34.6343 52.185 -30.3705 0.288635 19.3399L5.20521 21.5259Z" fill="white"/>
<path d="M59.2851 18.7927C77.0184 39.9641 52.1875 73.2422 43.1713 46.9256C68.4399 35.6117 35.1813 -3.2395 14.7636 37.6299C14.7636 37.6299 15.3107 31.6215 14.2189 31.6215C14.2189 31.6215 20.7841 20.6966 25.1439 18.5106C-20.6445 52.4331 16.8207 140.927 76.4932 120.674C48.6982 128.499 8.94979 113.409 6.56932 63.8613C22.6369 141.641 92.7821 132.01 115.279 76.9722C103.35 134.558 33.895 139.076 13.9636 99.9308C-13.7948 56.8001 17.7228 -8.58402 50.3784 15.6244C51.9832 16.6092 49.7219 17.6718 47.5408 16.8815C58.9544 24.9323 59.2292 36.1661 57.3739 43.6479C65.1549 41.6978 59.7593 17.611 59.2851 18.7927Z" fill="white"/>
<path d="M47.2685 35.1815C47.587 35.9377 48.0928 41.9095 44.0515 39.4318C24.1372 40.4603 44.764 20.8718 47.2685 35.1815Z" fill="white"/>
<path d="M77.3636 89.2318C71.3723 79.9919 67.1001 84.5535 70.8787 94.7198C58.9399 72.8116 56.822 86.2386 62.8546 96.259C63.4309 97.6741 62.7987 97.4018 62.023 97.0079C51.1176 90.1509 55.6038 84.1207 45.9481 83.7438C59.4116 103.14 29.7419 103.323 23.1208 84.393C13.5746 67.9096 15.9283 34.6048 35.9691 29.8657C14.039 34.1574 14.5715 65.3006 16.5289 73.3392C16.6043 73.6724 16.9252 75.0608 17.5647 77.1932C26.2915 108.402 50.1474 109.192 54.4293 97.2146C54.4293 97.2146 54.4026 97.1854 54.495 97.2C54.7673 96.772 61.1598 100.847 64.8607 101.29C67.9803 100.804 64.3549 92.8256 62.7136 89.3339C62.0328 87.5686 61.2814 87.4738 61.8382 86.1729C69.3031 90.7442 72.7802 105.53 74.4823 100.886C74.6257 93.8882 65.8163 81.8423 77.3661 89.2148L77.3636 89.2318Z" fill="white"/>
<path d="M29.8149 63.7492V69.9083H26.3135V68.96V67.2458C26.2811 66.4147 26.4245 65.5862 26.7341 64.8142C27.0583 64.1091 27.5203 63.7565 28.1201 63.7565L29.8149 63.7492ZM27.6946 60.9141C27.768 60.9199 27.8385 60.9456 27.8985 60.9884C27.9585 61.0313 28.0057 61.0896 28.035 61.1572C28.1311 61.3372 28.1781 61.5393 28.1712 61.7432C28.1784 61.9448 28.1314 62.1447 28.035 62.3219C28.01 62.3926 27.9638 62.4538 27.9026 62.4971C27.8414 62.5404 27.7683 62.5636 27.6934 62.5636C27.6184 62.5636 27.5453 62.5404 27.4841 62.4971C27.4229 62.4538 27.3767 62.3926 27.3517 62.3219C27.2537 62.1451 27.205 61.9453 27.2107 61.7432C27.2054 61.5389 27.254 61.3368 27.3517 61.1572C27.3813 61.0893 27.4288 61.0307 27.4892 60.9878C27.5497 60.945 27.6207 60.9195 27.6946 60.9141ZM27.432 65.7771C27.2656 66.2397 27.192 66.7305 27.2156 67.2215V68.323H28.9176V65.2957H28.1371C27.9833 65.292 27.8323 65.3371 27.7056 65.4245C27.579 65.5118 27.4832 65.6369 27.432 65.782V65.7771ZM28.745 60.9141C28.8178 60.92 28.8877 60.9457 28.9468 60.9886C29.006 61.0315 29.0523 61.0898 29.0806 61.1572C29.1794 61.3363 29.2281 61.5388 29.2216 61.7432C29.2285 61.9454 29.1797 62.1456 29.0806 62.3219C29.0527 62.3896 29.0066 62.4482 28.9473 62.4912C28.8881 62.5341 28.818 62.5597 28.745 62.5651C28.671 62.5599 28.5999 62.5345 28.5394 62.4916C28.479 62.4488 28.4315 62.39 28.4022 62.3219C28.303 62.1456 28.2542 61.9454 28.2611 61.7432C28.2546 61.5388 28.3033 61.3363 28.4022 61.1572C28.4317 61.0893 28.4792 61.0307 28.5397 60.9878C28.6001 60.945 28.6711 60.9195 28.745 60.9141Z" fill="white"/>
<path d="M33.9241 68.328V69.9085H30.6027V68.3377H32.4604V67.2265C32.4796 66.7549 32.4137 66.2838 32.2658 65.8356C32.2274 65.6999 32.1512 65.5778 32.0462 65.4835C31.9412 65.3893 31.8116 65.3267 31.6725 65.3031L31.5777 65.2861L31.3589 65.2496V63.7153L31.6142 63.7494H31.7309C32.2415 63.8158 32.6419 64.1563 32.9321 64.7706C33.2557 65.5508 33.4051 66.3923 33.3698 67.2362V68.3182L33.9241 68.328Z" fill="white"/>
<path d="M38.9794 68.3282V69.9087H33.9242V68.3282H37.5326V66.8571C37.5326 66.31 37.4353 65.9112 37.2432 65.6656C37.1454 65.5377 37.0173 65.4361 36.8704 65.3698C36.7236 65.3036 36.5626 65.2749 36.4019 65.2863H34.7947V63.9684L34.8628 63.8493L37.1095 60.0925L37.1825 59.9661L37.3502 59.6768L37.5229 59.9661L37.5958 60.0925L37.749 60.3552L37.822 60.4816L37.9897 60.7807L37.822 61.0676L37.749 61.194L36.2731 63.7326H36.3946C36.6728 63.7273 36.948 63.7911 37.1955 63.9185C37.4429 64.0458 37.6548 64.2326 37.8122 64.462C38.2207 65.0164 38.425 65.8115 38.425 66.8474V68.3355L38.9794 68.3282Z" fill="white"/>
<path d="M41.389 68.3281V69.9086H38.9794V68.3281H39.7307V64.158V63.7495H40.6304V68.3281H41.389ZM39.6164 70.5773C39.6898 70.5834 39.7602 70.6092 39.8201 70.652C39.8801 70.6948 39.9273 70.753 39.9569 70.8204C40.051 71.002 40.0979 71.2044 40.093 71.4089C40.0976 71.6102 40.0507 71.8094 39.9569 71.9876C39.9319 72.0582 39.8856 72.1194 39.8245 72.1627C39.7633 72.206 39.6902 72.2293 39.6152 72.2293C39.5403 72.2293 39.4672 72.206 39.406 72.1627C39.3448 72.1194 39.2985 72.0582 39.2736 71.9876C39.1758 71.8107 39.1271 71.6109 39.1326 71.4089C39.1263 71.2037 39.175 71.0005 39.2736 70.8204C39.3033 70.7526 39.351 70.6942 39.4113 70.6514C39.4717 70.6085 39.5426 70.5829 39.6164 70.5773ZM40.7544 70.5773C40.8279 70.5831 40.8984 70.6088 40.9583 70.6516C41.0183 70.6945 41.0655 70.7528 41.0948 70.8204C41.1942 71.0003 41.2438 71.2034 41.2383 71.4089C41.2429 71.6111 41.1933 71.8109 41.0948 71.9876C41.0705 72.0585 41.0246 72.1201 40.9636 72.1637C40.9025 72.2073 40.8294 72.2307 40.7544 72.2307C40.6794 72.2307 40.6063 72.2073 40.5452 72.1637C40.4842 72.1201 40.4383 72.0585 40.414 71.9876C40.319 71.8098 40.272 71.6103 40.2778 71.4089C40.2712 71.2042 40.3182 71.0014 40.414 70.8204C40.4433 70.7528 40.4905 70.6945 40.5505 70.6516C40.6104 70.6088 40.6809 70.5831 40.7544 70.5773Z" fill="white"/>
<path d="M46.4442 68.3282V69.9087H41.389V68.3282H45.0071V66.8571C45.0071 66.31 44.9123 65.9112 44.7202 65.6656C44.6224 65.5377 44.4943 65.4361 44.3474 65.3698C44.2006 65.3036 44.0396 65.2749 43.8789 65.2863H42.2692V63.9684L42.3373 63.8493L44.5841 60.0925L44.657 59.9661L44.8248 59.6768L44.9974 59.9661L45.0704 60.0925L45.2236 60.3552L45.2965 60.4816L45.4643 60.7807L45.2965 61.0676L45.2236 61.194L43.7476 63.7326H43.8692C44.1474 63.7273 44.4226 63.7911 44.67 63.9185C44.9174 64.0458 45.1294 64.2326 45.2868 64.462C45.6953 65.0164 45.8995 65.8115 45.8995 66.8474V68.3355L46.4442 68.3282Z" fill="white"/>
<path d="M51.3996 63.7422V70.8569H50.5073V69.9086H48.7493V69.4952C48.712 69.5294 48.6713 69.5596 48.6277 69.5852C48.3356 69.8019 47.9798 69.9157 47.6162 69.9086H46.4442V68.3281H47.001V63.7592H47.9104V68.3208C48.1229 68.2786 48.3139 68.1633 48.4502 67.995C48.6617 67.6776 48.7665 67.3011 48.7493 66.9202V63.7422H49.6514V68.3378H50.5073V63.7422H51.3996Z" fill="white"/>
<path d="M55.5989 62.1616V69.9085H54.8062V64.3476L54.5874 64.7439L54.5242 64.8606L54.4075 65.0697L54.2761 64.8971L54.1983 64.7974C54.1582 64.7491 54.1216 64.6979 54.0889 64.6442C54.0742 64.619 54.0579 64.5946 54.0403 64.5713L53.9503 64.4448L53.7947 64.2284L53.9309 63.9853L54.0135 63.8418L54.8378 62.3343L54.8694 62.271L54.9278 62.1713L55.5989 62.1616Z" fill="white"/>
<path d="M59.1855 62.5485C59.5737 63.0685 59.7704 63.7067 59.7423 64.3551V67.538C59.7767 68.1872 59.5793 68.8274 59.1855 69.3446C59.0551 69.5181 58.8862 69.659 58.6921 69.756C58.498 69.8531 58.284 69.9037 58.067 69.9039H58.0524C57.3229 69.9039 56.8188 69.4678 56.54 68.5957L56.4865 68.4328L56.3916 68.1435L56.5667 67.9903L56.6664 67.9003L56.8658 67.7277L56.9533 67.6572L57.1065 67.521L57.1965 67.7836L57.2475 67.9271C57.292 68.1049 57.3962 68.2621 57.5427 68.3723C57.6892 68.4826 57.8692 68.5391 58.0524 68.5325C58.176 68.5356 58.2988 68.5113 58.4119 68.4613C58.525 68.4112 58.6256 68.3367 58.7065 68.2432C58.8742 68.0447 58.961 67.7903 58.9496 67.5307V66.9326C58.701 67.137 58.3862 67.2434 58.0645 67.2316C57.8491 67.2285 57.6371 67.1766 57.4447 67.0797C57.2522 66.9828 57.0842 66.8436 56.9533 66.6724C56.5574 66.1549 56.3567 65.5142 56.3868 64.8633V64.3478C56.3522 63.7002 56.5457 63.0609 56.9339 62.5412C57.0644 62.3678 57.2333 62.2271 57.4274 62.1301C57.6214 62.033 57.8354 61.9823 58.0524 61.9819H58.067C58.2844 61.9843 58.4983 62.0366 58.6923 62.1348C58.8862 62.2331 59.055 62.3746 59.1855 62.5485ZM58.6992 65.5758C58.8673 65.3765 58.9541 65.1213 58.9423 64.8609V64.3746C58.9521 64.1152 58.8654 63.8614 58.6992 63.6621C58.6186 63.5681 58.5181 63.4934 58.4049 63.4433C58.2917 63.3932 58.1688 63.3691 58.0451 63.3728C57.925 63.3675 57.8053 63.3894 57.695 63.437C57.5847 63.4846 57.4865 63.5566 57.408 63.6475C57.2505 63.8505 57.1711 64.1034 57.1843 64.36V64.8463C57.1692 65.1039 57.2487 65.3581 57.408 65.5612C57.4844 65.6561 57.5815 65.7323 57.692 65.7837C57.8025 65.8351 57.9233 65.8605 58.0451 65.8578C58.1694 65.8636 58.2935 65.8413 58.408 65.7925C58.5226 65.7436 58.6246 65.6695 58.7065 65.5758H58.6992Z" fill="white"/>
<path d="M63.3215 65.1064C63.6983 65.6616 63.8875 66.3228 63.8613 66.9933V67.3823C63.8851 68.0562 63.6944 68.7203 63.3166 69.2789C63.1964 69.4696 63.031 69.6278 62.835 69.7393C62.6391 69.8509 62.4186 69.9124 62.1933 69.9184C61.4857 69.9184 60.9775 69.4734 60.6857 68.5835L60.6298 68.4109L60.5276 68.1142L60.7124 67.9586L60.817 67.8783L61.0164 67.7154L61.1064 67.6425L61.2595 67.5161L61.3471 67.7592L61.3957 67.9148C61.4375 68.0926 61.5401 68.2501 61.6857 68.3602C61.8313 68.4703 62.0109 68.5261 62.1933 68.5178C62.3082 68.5169 62.4215 68.4897 62.5243 68.4383C62.6271 68.3869 62.7168 68.3126 62.7866 68.2212C62.9801 67.9782 63.0787 67.6731 63.0638 67.3629V67.003C63.0732 66.7268 63.0041 66.4536 62.8644 66.2152C62.7987 66.1073 62.7061 66.0183 62.5957 65.9569C62.4853 65.8955 62.3609 65.8639 62.2346 65.865C61.8895 65.8691 61.5574 65.9968 61.2985 66.2249L61.2766 66.2444L61.2401 66.2784H61.1599C61.13 66.2886 61.0989 66.2951 61.0675 66.2978H60.7732V62.2056H63.657V63.5891H61.5683V64.6201C61.7654 64.5273 61.9803 64.4784 62.1981 64.4766H62.2346C62.4533 64.4854 62.6666 64.5473 62.8559 64.6571C63.0453 64.7668 63.2051 64.921 63.3215 65.1064Z" fill="white"/>
<path d="M67.4429 65.1064C67.8197 65.6616 68.0089 66.3228 67.9827 66.9933V67.3823C68.0053 68.0561 67.8147 68.7198 67.4381 69.2789C67.3178 69.4696 67.1524 69.6278 66.9564 69.7393C66.7605 69.8509 66.5401 69.9124 66.3147 69.9184C65.6079 69.9184 65.1054 69.4734 64.8071 68.5835L64.7488 68.4109L64.6491 68.1142L64.8339 67.9586L64.9384 67.8783L65.1378 67.7154L65.2278 67.6425L65.3785 67.5161L65.4685 67.7592L65.5147 67.9148C65.557 68.0928 65.66 68.2504 65.8061 68.3604C65.9521 68.4705 66.132 68.5262 66.3147 68.5178C66.4293 68.5169 66.5422 68.4897 66.6446 68.4383C66.7471 68.3868 66.8363 68.3126 66.9055 68.2212C67.101 67.9791 67.2005 67.6736 67.1852 67.3629V67.003C67.1947 66.7268 67.1255 66.4536 66.9858 66.2152C66.9201 66.1073 66.8276 66.0183 66.7172 65.9569C66.6068 65.8955 66.4823 65.8639 66.356 65.865C66.0079 65.8683 65.6724 65.9959 65.4102 66.2249L65.3907 66.2444L65.3518 66.2784H65.274C65.2433 66.2889 65.2115 66.2954 65.1792 66.2978H64.8849V62.2056H67.7785V63.5891H65.6898V64.6201C65.8868 64.5271 66.1017 64.4782 66.3195 64.4766H66.356C66.5747 64.4854 66.788 64.5473 66.9774 64.6571C67.1668 64.7668 67.3265 64.921 67.4429 65.1064Z" fill="white"/>
<path d="M75.63 63.7492V69.9083H72.0921C71.8688 69.8672 71.6561 69.7814 71.4668 69.6561C71.2776 69.5307 71.1156 69.3684 70.9906 69.1789C70.5821 68.6245 70.377 67.8302 70.3754 66.796V64.8361L70.4654 64.7097L70.5067 64.6562L70.7134 64.3741L70.886 64.131L71.2751 63.5985V66.8859C71.2744 66.9851 71.2809 67.0843 71.2945 67.1826C71.3172 67.3739 71.3706 67.5602 71.4526 67.7345C71.5485 67.9278 71.7001 68.0878 71.8878 68.1941C72.0093 68.2701 72.1483 68.3137 72.2915 68.3205H72.7024H74.723V63.7492H75.63ZM72.4349 60.9141C72.5075 60.9207 72.577 60.9468 72.636 60.9896C72.6951 61.0324 72.7415 61.0903 72.7705 61.1572C72.8631 61.3391 72.9114 61.5403 72.9114 61.7444C72.9114 61.9485 72.8631 62.1498 72.7705 62.3316C72.7468 62.4029 72.7013 62.4649 72.6404 62.5088C72.5795 62.5527 72.5063 62.5764 72.4313 62.5764C72.3562 62.5764 72.283 62.5527 72.2221 62.5088C72.1612 62.4649 72.1157 62.4029 72.0921 62.3316C71.9994 62.1498 71.9511 61.9485 71.9511 61.7444C71.9511 61.5403 71.9994 61.3391 72.0921 61.1572C72.1218 61.0894 72.1694 61.031 72.2298 60.9882C72.2902 60.9453 72.3611 60.9197 72.4349 60.9141ZM73.5729 60.9141C73.6459 60.9194 73.7159 60.945 73.7752 60.9879C73.8345 61.0309 73.8806 61.0895 73.9084 61.1572C74.0026 61.3386 74.0518 61.54 74.0518 61.7444C74.0518 61.9488 74.0026 62.1502 73.9084 62.3316C73.8811 62.3997 73.8351 62.4586 73.7757 62.5016C73.7163 62.5446 73.646 62.57 73.5729 62.5748C73.4993 62.5692 73.4287 62.5436 73.3687 62.5008C73.3087 62.4579 73.2616 62.3994 73.2325 62.3316C73.1398 62.1498 73.0915 61.9485 73.0915 61.7444C73.0915 61.5403 73.1398 61.3391 73.2325 61.1572C73.262 61.0898 73.3092 61.0316 73.3692 60.9888C73.4291 60.946 73.4995 60.9201 73.5729 60.9141Z" fill="white"/>
<path d="M79.3478 63.7422V68.5469C79.3478 69.6006 79.2148 70.4111 78.949 70.9784C78.6831 71.5458 78.2779 71.8741 77.7332 71.9632C77.6278 71.9794 77.5214 71.9883 77.4147 71.99H77.2615H77.1618L76.9357 71.9632V70.407L77.1934 70.4338L77.3077 70.4508H77.4074C77.4887 70.4493 77.5698 70.4436 77.6505 70.4338C77.7942 70.4158 77.9297 70.3566 78.0405 70.2635C78.1514 70.1703 78.233 70.047 78.2754 69.9086H76.4056V67.2339C76.3723 66.4027 76.5157 65.574 76.8262 64.8023C77.1504 64.0972 77.6124 63.7446 78.2122 63.7446L79.3478 63.7422ZM77.5411 65.7725C77.3746 66.24 77.3018 66.7358 77.3271 67.2314V68.3329H78.4457V65.2862H78.239C78.0864 65.2841 77.937 65.3299 77.8118 65.4171C77.6866 65.5044 77.592 65.6287 77.5411 65.7725Z" fill="white"/>
<path d="M81.3003 58.1154V58.9178H80.1356V58.1154H80.2499C80.3058 57.4054 80.5174 56.9944 80.8797 56.8874L81.1009 56.8242V57.6193L80.955 57.6728C80.831 57.7142 80.7556 57.8625 80.7119 58.1154H81.3003ZM81.169 59.9585V69.9083H80.2645V59.9585H81.169Z" fill="white"/>
<path d="M86.8807 68.5273V69.9084H83.9118L83.8705 69.7018L83.8437 69.585C83.8437 69.5534 83.8243 69.5072 83.8072 69.4391C83.7902 69.3711 83.7756 69.337 83.7659 69.2957L83.7391 69.179L83.6905 68.9796L83.7805 68.8264L83.834 68.7437L85.733 65.4928C85.9346 65.1827 86.0488 64.824 86.0637 64.4545C86.0727 64.218 86.0007 63.9855 85.8595 63.7955C85.797 63.7117 85.7165 63.6431 85.6239 63.5947C85.5313 63.5463 85.429 63.5193 85.3245 63.5159H85.2832C84.9403 63.5159 84.702 63.7591 84.5683 64.2113L84.5221 64.3645L84.4467 64.6271L84.2838 64.5177L84.1963 64.4545C84.1464 64.4216 84.0986 64.3859 84.0528 64.3475L83.992 64.2916L83.8972 64.2211L83.7294 64.0849L83.8072 63.7955L83.8486 63.6229C84.1031 62.6503 84.5999 62.1567 85.3391 62.1421C85.5556 62.148 85.7671 62.2083 85.9541 62.3175C86.1411 62.4268 86.2975 62.5813 86.409 62.767C86.7271 63.2758 86.8824 63.8696 86.8539 64.4691C86.8493 65.1735 86.6535 65.8635 86.2874 66.4654L85.0716 68.5322L86.8807 68.5273Z" fill="white"/>
<path d="M90.404 62.5216C90.8031 63.0438 91.0023 63.6914 90.9657 64.3477V67.5378C90.9985 68.1778 90.8105 68.8095 90.4332 69.3274C90.3069 69.5056 90.1398 69.6509 89.9458 69.7511C89.7519 69.8514 89.5367 69.9037 89.3183 69.9037C89.1 69.9037 88.8848 69.8514 88.6908 69.7511C88.4969 69.6509 88.3297 69.5056 88.2035 69.3274C87.8242 68.8104 87.6352 68.1782 87.6685 67.5378V64.3477C87.6311 63.6906 87.8323 63.0421 88.2351 62.5216C88.3612 62.353 88.5249 62.2161 88.7131 62.1219C88.9014 62.0276 89.109 61.9785 89.3195 61.9785C89.5301 61.9785 89.7377 62.0276 89.926 62.1219C90.1142 62.2161 90.2779 62.353 90.404 62.5216ZM90.1609 64.3477C90.1774 64.0822 90.0902 63.8206 89.9177 63.6182C89.8396 63.5366 89.745 63.4726 89.6401 63.4307C89.5353 63.3888 89.4226 63.3698 89.3098 63.375C89.1959 63.3692 89.082 63.3879 88.9758 63.4298C88.8697 63.4718 88.7738 63.536 88.6946 63.6182C88.5221 63.8206 88.4349 64.0822 88.4515 64.3477V67.5378C88.4349 67.8033 88.5221 68.0648 88.6946 68.2673C88.7746 68.3485 88.8706 68.412 88.9765 68.4539C89.0825 68.4958 89.196 68.515 89.3098 68.5104C89.4225 68.5148 89.5349 68.4954 89.6396 68.4535C89.7443 68.4116 89.8391 68.3482 89.9177 68.2673C90.0902 68.0648 90.1774 67.8033 90.1609 67.5378V64.3477Z" fill="white"/>
<path d="M97.2853 68.3278V69.9083H93.2319V68.96V67.2458C93.1996 66.4147 93.3429 65.5862 93.6526 64.8142C93.9768 64.1091 94.4388 63.7565 95.0386 63.7565H96.7407V68.3351L97.2853 68.3278ZM94.3456 65.782C94.1792 66.2445 94.1056 66.7354 94.1292 67.2263V68.3278H95.8313V65.2957H95.0483C94.8957 65.2936 94.7464 65.3394 94.6212 65.4266C94.496 65.5138 94.4013 65.6381 94.3505 65.782H94.3456ZM94.7711 60.9189C94.8446 60.9245 94.9153 60.9501 94.9753 60.993C95.0353 61.0358 95.0824 61.0943 95.1115 61.1621C95.2104 61.3412 95.2591 61.5436 95.2526 61.7481C95.2595 61.9503 95.2107 62.1505 95.1115 62.3268C95.0873 62.3972 95.0417 62.4582 94.9811 62.5015C94.9205 62.5447 94.848 62.5679 94.7735 62.5679C94.6991 62.5679 94.6265 62.5447 94.566 62.5015C94.5054 62.4582 94.4598 62.3972 94.4356 62.3268C94.3356 62.1507 94.2859 61.9505 94.2921 61.7481C94.2863 61.5434 94.3359 61.3409 94.4356 61.1621C94.464 61.0934 94.5108 61.0339 94.5709 60.9901C94.6309 60.9464 94.7019 60.9201 94.776 60.9141L94.7711 60.9189ZM95.8215 60.9189C95.895 60.9247 95.9655 60.9505 96.0255 60.9933C96.0854 61.0361 96.1326 61.0945 96.162 61.1621C96.2608 61.3412 96.3095 61.5436 96.303 61.7481C96.3099 61.9503 96.2611 62.1505 96.162 62.3268C96.1328 62.3945 96.0857 62.453 96.0257 62.4959C95.9657 62.5388 95.8951 62.5644 95.8215 62.5699C95.7481 62.565 95.6775 62.5396 95.6178 62.4967C95.5581 62.4537 95.5116 62.3948 95.4836 62.3268C95.3856 62.15 95.3368 61.9501 95.3425 61.7481C95.3372 61.5437 95.3858 61.3416 95.4836 61.1621C95.5117 61.0927 95.5587 61.0327 95.6194 60.9888C95.68 60.945 95.7517 60.9191 95.8264 60.9141L95.8215 60.9189Z" fill="white"/>
<path d="M101.526 66.3706L101.463 66.5408L101.436 66.621L101.263 67.1073L100.828 68.3353H101.735V69.9158H97.2853V68.3353H98.1995L97.7716 67.1L97.5989 66.6137L97.5722 66.5335L97.509 66.3633L97.5527 66.1639L97.5722 66.0812C97.616 65.9134 97.6622 65.7505 97.7157 65.5949C97.866 65.0736 98.1453 64.5986 98.5278 64.2138C98.754 63.9787 99.0483 63.8205 99.3691 63.7615C99.4177 63.7579 99.4664 63.7579 99.515 63.7615C99.566 63.7581 99.6172 63.7581 99.6682 63.7615C99.9871 63.8137 100.28 63.9692 100.502 64.2041L100.602 64.3111C100.675 64.3946 100.743 64.4823 100.806 64.5737C101.03 64.8859 101.205 65.2302 101.326 65.5949C101.38 65.7546 101.426 65.9169 101.463 66.0812L101.485 66.1639L101.526 66.3706ZM99.2791 68.328H99.7509L100.48 66.3049C100.257 65.7165 99.9381 65.4052 99.5247 65.3761C99.1162 65.4052 98.7953 65.7165 98.5691 66.3049L99.2791 68.328Z" fill="white"/>
<path d="M104.986 63.7495V69.9086H101.735V68.3281H102.061V67.2461C102.03 66.4151 102.173 65.5868 102.481 64.8145C102.806 64.1094 103.268 63.7568 103.867 63.7568L104.986 63.7495ZM104.094 68.3476V65.296H103.887C103.735 65.2949 103.587 65.3411 103.463 65.4283C103.338 65.5155 103.244 65.6392 103.194 65.7823C103.025 66.2443 102.951 66.7354 102.975 67.2266V68.3476H104.094Z" fill="white"/>
<path d="M106.549 59.959V68.3284H107.075V69.9089H105.642V59.959H106.549Z" fill="white"/>
<path d="M110.535 67.0295C110.535 67.1073 110.535 67.1875 110.535 67.2726V69.9084H107.075V68.3279H109.63V67.2459C109.63 67.1729 109.63 67.0927 109.63 67.0027C109.627 66.809 109.612 66.6157 109.584 66.424C109.56 66.2674 109.523 66.1129 109.475 65.962C109.404 65.7574 109.283 65.5741 109.122 65.4295C109.022 65.3494 108.902 65.2996 108.774 65.286H108.692C108.587 65.2869 108.484 65.3084 108.388 65.3493L108.256 65.4125L107.95 65.5559V63.9682L108.13 63.8855L108.208 63.849C108.506 63.7218 108.84 63.7077 109.147 63.8093C109.455 63.911 109.715 64.1213 109.878 64.401C110.219 64.9503 110.427 65.5713 110.486 66.2149C110.51 66.4508 110.527 66.7207 110.535 67.0295ZM109.013 71.0196C109.086 71.0257 109.156 71.0515 109.216 71.0943C109.276 71.1371 109.323 71.1953 109.353 71.2628C109.447 71.4443 109.494 71.6467 109.489 71.8512C109.494 72.0525 109.447 72.2517 109.353 72.4299C109.328 72.5006 109.282 72.5618 109.221 72.6051C109.159 72.6484 109.086 72.6716 109.011 72.6716C108.936 72.6716 108.863 72.6484 108.802 72.6051C108.741 72.5618 108.695 72.5006 108.67 72.4299C108.576 72.2517 108.529 72.0525 108.534 71.8512C108.529 71.6467 108.576 71.4443 108.67 71.2628C108.699 71.195 108.747 71.1365 108.807 71.0937C108.868 71.0509 108.939 71.0253 109.013 71.0196Z" fill="white"/>
</svg>
