<svg width="46" height="46" viewBox="0 0 46 46" fill="none" xmlns="http://www.w3.org/2000/svg">
<path d="M30.6666 15.333C33.7166 15.333 36.6417 16.5446 38.7984 18.7013C40.955 20.8579 42.1666 23.783 42.1666 26.833V40.2497H34.5V26.833C34.5 25.8163 34.0961 24.8413 33.3772 24.1224C32.6583 23.4035 31.6833 22.9997 30.6666 22.9997C29.65 22.9997 28.6749 23.4035 27.9561 24.1224C27.2372 24.8413 26.8333 25.8163 26.8333 26.833V40.2497H19.1666V26.833C19.1666 23.783 20.3782 20.8579 22.5349 18.7013C24.6916 16.5446 27.6166 15.333 30.6666 15.333Z" fill="white"/>
<path d="M3.83331 17.25H11.5V40.25H3.83331V17.25Z" fill="white"/>
<path d="M7.66665 11.4997C9.78374 11.4997 11.5 9.78343 11.5 7.66634C11.5 5.54925 9.78374 3.83301 7.66665 3.83301C5.54955 3.83301 3.83331 5.54925 3.83331 7.66634C3.83331 9.78343 5.54955 11.4997 7.66665 11.4997Z" fill="white"/>
</svg>
